<?xml version="1.0" encoding="UTF-8" standalone="no"?>
<!-- Created with Inkscape (http://www.inkscape.org/) -->
<svg
   xmlns:dc="http://purl.org/dc/elements/1.1/"
   xmlns:cc="http://creativecommons.org/ns#"
   xmlns:rdf="http://www.w3.org/1999/02/22-rdf-syntax-ns#"
   xmlns:svg="http://www.w3.org/2000/svg"
   xmlns="http://www.w3.org/2000/svg"
   xmlns:sodipodi="http://sodipodi.sourceforge.net/DTD/sodipodi-0.dtd"
   xmlns:inkscape="http://www.inkscape.org/namespaces/inkscape"
   version="1.0"
   width="1710.7351"
   height="1991.7078"
   id="North_America_second_level_political_division_and_Greenland"
   sodipodi:version="0.32"
   inkscape:version="0.46"
   sodipodi:docname="Naunion.svg"
   inkscape:output_extension="org.inkscape.output.svg.inkscape">
  <metadata
     id="metadata4259">
    <rdf:RDF>
      <cc:Work
         rdf:about="">
        <dc:format>image/svg+xml</dc:format>
        <dc:type
           rdf:resource="http://purl.org/dc/dcmitype/StillImage" />
      </cc:Work>
    </rdf:RDF>
  </metadata>
  <defs
     id="defs4257">
    <inkscape:perspective
       sodipodi:type="inkscape:persp3d"
       inkscape:vp_x="0 : 1077.2278 : 1"
       inkscape:vp_y="0 : 1000 : 0"
       inkscape:vp_z="1789.4626 : 1077.2278 : 1"
       inkscape:persp3d-origin="894.73132 : 718.15186 : 1"
       id="perspective4261" />
  </defs>
  <sodipodi:namedview
     inkscape:window-height="972"
     inkscape:window-width="1280"
     inkscape:pageshadow="2"
     inkscape:pageopacity="0.0"
     guidetolerance="10.0"
     gridtolerance="10.0"
     objecttolerance="10.0"
     borderopacity="1.0"
     bordercolor="#666666"
     pagecolor="#ffffff"
     id="base"
     showgrid="false"
     inkscape:zoom="0.21629594"
     inkscape:cx="1173.2473"
     inkscape:cy="928.95377"
     inkscape:window-x="-4"
     inkscape:window-y="-4"
     inkscape:current-layer="North_America_second_level_political_division_and_Greenland" />
  <path
     style="fill:#42929d;fill-opacity:1"
     d="M 1183.2253,0 C 1176.9249,1.889 1170.4306,2.68409 1164.0764,1.15559 C 1156.1404,1.9419 1148.801,8.243 1140.5934,5.24917 C 1133.3836,2.76999 1131.5132,11.79182 1125.9331,12.22727 C 1117.2299,14.39134 1115.877,25.5158 1111.1204,31.94139 C 1107.9547,33.93433 1110.9475,43.84884 1105.72,38.67128 C 1101.374,34.43967 1092.6714,33.25029 1091.6009,40.83705 C 1086.8739,44.35685 1087.7739,52.62307 1080.2212,51.23288 C 1074.3349,55.23073 1069.0453,60.06953 1062.7075,63.20696 C 1056.728,68.09406 1062.0052,73.73333 1068.054,73.73817 C 1074.861,75.69012 1072.4012,82.07448 1067.7338,84.81375 C 1064.5053,88.80882 1067.4309,97.14059 1073.2565,95.8125 C 1070.8103,103.62002 1082.9516,111.68778 1088.6455,105.57329 C 1094.5669,102.19034 1091.4197,114.28798 1098.4429,112.69505 C 1103.8163,112.05372 1109.1359,110.70144 1114.6426,110.39364 C 1120.4182,109.83549 1126.0325,106.8781 1128.6955,101.54234 C 1131.7527,98.74723 1133.4409,87.27631 1137.6111,94.42696 C 1142.3699,100.17176 1134.5654,103.42241 1132.6327,108.10218 C 1129.1236,113.47129 1121.7316,114.07298 1116.9196,118.16471 C 1111.4189,120.40728 1112.8384,126.00956 1114.0065,130.5 C 1109.0922,125.03651 1101.9506,119.10263 1094.1003,121.59375 C 1088.3892,125.14124 1091.7946,133.16256 1089.0858,138.33413 C 1085.992,133.53204 1081.1833,129.7107 1078.4336,124.5186 C 1077.2572,118.93193 1073.9309,114.54849 1070.208,110.29278 C 1066.3029,105.75402 1063.7265,100.27186 1062.6144,94.41236 C 1060.3702,87.79717 1053.4108,80.59938 1045.8815,83.65625 C 1044.6579,88.43601 1042.8209,92.31036 1038.3042,94.95615 C 1033.817,98.88679 1034.4641,103.80009 1039.3543,106.76667 C 1043.5339,113.91465 1031.1065,110.26493 1030.2952,116.55199 C 1026.5067,122.66222 1038.2068,125.00126 1034.4753,130.40625 C 1026.8138,129.30343 1025.1833,138.43149 1027.3751,143.97504 C 1030.405,147.24365 1032.0564,150.10279 1030.3841,154.5673 C 1033.4881,161.32986 1041.3744,157.47639 1046.902,157.50943 C 1054.9197,157.1391 1053.5969,166.15575 1046.5657,165.96232 C 1038.3915,166.7694 1038.1613,177.70998 1042.6914,182.67778 C 1047.1683,189.39849 1051.2823,196.63065 1057.271,202.11741 C 1062.4344,205.57072 1069.4706,203.87555 1070.9182,197.86934 C 1076.8729,199.17531 1080.5428,194.32042 1083.0377,189.46875 C 1083.5535,186.00742 1088.3158,177.16543 1090.0171,184.61029 C 1089.3992,190.99181 1081.7027,202.08602 1092.0877,204.37871 C 1095.7813,205.38282 1107.8547,203.16717 1101.2969,209.05255 C 1098.7255,211.9367 1100.8337,218.23892 1096.1243,213.56417 C 1089.191,208.34127 1076.3887,213.19498 1080.0679,222.94655 C 1080.0438,228.14207 1092.887,234.7732 1083.4949,236.91328 C 1076.3947,239.27201 1071.5953,247.04904 1071.453,254.45512 C 1070.9706,260.04047 1075.0984,264.90284 1080.7432,265.10426 C 1087.7518,265.94349 1094.8729,264.48253 1101.8342,265.94314 C 1108.4846,268.2724 1113.6335,264.11857 1113.813,257.39326 C 1116.8821,253.71879 1119.169,262.9962 1123.689,262.5405 C 1129.8877,266.1896 1135.1144,255.07753 1140.2077,262.65769 C 1140.0446,267.31288 1142.8175,271.74606 1147.7449,268.71056 C 1155.4941,265.41988 1161.3258,258.01867 1163.568,250.00993 C 1166.4465,242.43336 1158.7209,239.86595 1154.5291,235.80211 C 1150.0798,229.84252 1160.6089,227.22613 1160.4587,221.23606 C 1160.0718,215.06869 1158.9393,206.82863 1167.4978,206.48962 C 1173.8948,203.91308 1170.4452,194.18741 1176.489,193.65035 C 1180.4219,189.21745 1168.521,185.71912 1175.5377,181.875 C 1180.0317,173.89568 1170.8119,163.65273 1162.3503,166.1875 C 1167.4892,162.80004 1165.031,155.61958 1161.5465,153.39587 C 1165.6909,148.13598 1174.5028,150.08049 1177.6929,143.41658 C 1180.2646,140.09097 1179.6686,134.64754 1185.1483,136.48742 C 1193.5776,134.39742 1193.3804,124.90272 1194.0842,118.0363 C 1196.7937,104.13357 1204.9517,92.07466 1208.2253,78.34375 C 1211.608,71.74879 1217.3173,65.18881 1215.694,57.25 C 1216.0943,50.06954 1208.1474,53.03978 1205.5896,56.801 C 1202.8896,58.64927 1199.1584,60.91038 1202.0768,56.15591 C 1205.0176,48.41244 1215.3489,47.74393 1217.6085,39.65278 C 1220.2437,31.31205 1222.225,21.47962 1217.9843,13.33964 C 1214.212,8.80205 1206.1541,10.19879 1203.5521,3.92005 C 1199.3921,-2.46705 1189.2876,3.0777 1183.2253,0 z M 1006.0065,126.75 C 998.91719,127.68281 1001.0521,137.38734 1005.7835,140.12244 C 1011.9512,144.89708 1017.1765,135.38517 1012.2089,130.92919 C 1010.6378,129.12911 1008.6923,126.45962 1006.0065,126.75 z M 1091.819,141.90625 C 1095.3264,142.86979 1100.4479,151.37862 1096.625,151.8259 C 1092.1268,148.89423 1085.8295,142.31533 1088.0183,138.35156 C 1089.2852,139.53645 1090.5521,140.72136 1091.819,141.90625 z M 1092.1003,142.21875 C 1092.1003,142.21875 1092.1003,142.21875 1092.1003,142.21875 z M 970.44396,152.8125 C 961.90805,154.36036 963.71855,165.62259 970.19997,168.69371 C 975.22909,173.84275 971.96867,180.38632 965.91049,182.1141 C 961.69914,188.23065 968.2479,196.79685 975.21986,195.7854 C 983.77966,194.12002 989.67924,201.39748 994.2187,207.46943 C 997.9641,215.21073 1008.1555,210.60994 1006.1307,202.84966 C 1002.3067,198.407 998.90124,193.07765 1002.1276,186.85862 C 1004.152,179.71688 995.5635,175.58866 993.66271,169.375 C 991.36715,163.8729 982.8363,164.43249 982.32582,158.77253 C 980.35446,154.36712 975.03654,152.25897 970.44396,152.8125 z M 1105.069,162.1875 C 1108.2593,169.18769 1114.9678,175.9738 1123.2565,175.125 C 1119.5823,182.40676 1112.4872,177.2686 1107.8885,174.17677 C 1102.4442,170.5486 1096.3377,182.69246 1092.894,176.9138 C 1094.6952,171.21683 1101.1514,167.92616 1101.5619,161.56384 C 1102.1691,155.33258 1103.2467,158.97858 1105.069,162.1875 z M 922.50646,169.03125 C 917.68969,170.45432 910.54627,170.36376 909.10528,176.40684 C 910.22306,180.33439 916.98114,176.69763 919.16599,181.35346 C 922.48829,182.39142 926.87305,189.25035 927.40932,182.04137 C 930.19564,174.26201 929.68727,189.98708 932.68127,183.42594 C 934.68233,179.11899 935.30838,173.57064 930.04613,172.54645 C 931.24191,167.41698 925.31332,169.44648 922.50646,169.03125 z M 1094.0377,175.90625 C 1095.2834,177.68917 1095.446,173.6577 1094.0377,175.90625 z M 1094.6627,176.375 C 1091.2611,173.95047 1094.3587,180.14422 1094.6627,176.375 z M 1013.8815,179.25 C 1006.4068,183.06255 1007.1288,194.50465 1012.7065,199.69102 C 1016.4295,203.99255 1013.2406,211.91092 1020.6307,213.06276 C 1027.7427,214.67046 1035.046,206.99517 1033.8214,199.90284 C 1033.9152,193.1196 1031.8727,186.05214 1024.4442,184.42051 C 1021.1944,182.29888 1018.1162,179.02936 1013.8815,179.25 z M 892.78771,184.8125 C 887.9345,189.04782 893.81071,195.14827 897.10486,198.3132 C 900.43013,203.02005 899.99309,210.13215 905.66149,213.13238 C 910.63607,216.69193 920.14284,216.17275 921.64884,209.1882 C 923.08979,202.95293 927.08929,194.82841 924.54035,189.24716 C 919.08594,188.20102 913.34303,189.27613 907.81465,189.53263 C 902.71744,191.09144 898.19418,190.15644 895.65135,185.52636 C 894.78704,185.03393 893.78683,184.75694 892.78771,184.8125 z M 871.69396,197.40625 C 863.71411,197.9356 853.78363,196.36141 848.22521,203.5625 C 842.99902,209.35578 836.42846,213.72748 829.10631,216.35089 C 823.04987,218.78604 814.52389,220.15823 812.78771,227.625 C 811.63706,235.88749 821.98143,233.95386 826.41173,235.67734 C 827.19785,242.48319 834.65409,245.01422 838.86303,239.33952 C 844.32884,234.61072 851.52099,226.06016 855.69367,223.49938 C 852.89284,227.86878 854.59175,239.13716 861.41156,233.8971 C 864.78773,228.77858 872.8852,227.58497 872.82161,220.60733 C 872.66836,213.12658 883.92324,210.49605 880.06728,202.03165 C 878.97649,198.47308 875.07548,197.15988 871.69396,197.40625 z M 1021.6315,213.875 C 1022.1561,213.40398 1020.9319,213.5352 1021.6315,213.875 z M 1021.694,214.09375 C 1022.8457,218.19945 1024.2079,212.46661 1021.694,214.09375 z M 1023.319,215.21875 C 1027.0035,214.24075 1022.6187,212.30915 1023.319,215.21875 z M 1032.2253,213.71875 C 1025.755,213.49116 1017.6135,222.44362 1024.6367,227.40668 C 1030.5109,232.26773 1041.4953,231.28431 1044.194,223.375 C 1045.324,216.89766 1037.6238,213.35151 1032.2253,213.71875 z M 954.91271,214.90625 C 948.75612,218.85118 950.98679,234.42956 959.37865,231.05829 C 963.8093,226.42153 960.42024,217.09268 954.91271,214.90625 z M 1103.8815,220.59375 C 1108.904,221.08547 1111.0165,231.64267 1104.3259,226.68605 C 1103.0893,225.05693 1098.2513,219.0252 1103.8815,220.59375 z M 872.75646,233.6875 C 867.19314,237.66689 859.77069,240.6176 857.5196,247.76099 C 854.74554,253.21814 852.13379,259.47948 846.93821,262.73291 C 843.44405,268.82371 851.08203,273.35343 853.78415,277.91276 C 857.93311,284.12585 865.49395,283.99418 871.29674,280.94777 C 875.516,283.77059 880.35336,284.73764 885.60021,285.1875 C 879.78224,290.61515 869.96283,288.01778 864.94396,294.65625 C 865.49892,300.37469 871.20011,306.22011 876.08948,307.88499 C 882.98448,308.26496 890.75123,307.37449 895.75646,302.09375 C 900.71558,301.40019 903.56953,295.3009 905.7026,293.14069 C 905.02407,297.60222 907.52714,302.53295 911.6001,297.77906 C 918.56082,296.41279 925.19477,304.88682 932.44396,300.8125 C 944.98488,295.60208 950.40992,277.7361 942.13475,266.83379 C 937.55651,263.89974 929.55311,271.27763 926.96253,264.70471 C 926.39607,258.72287 930.24186,253.12509 928.56543,247.1066 C 928.23823,242.61457 930.19175,234.18377 922.50142,236.20319 C 917.07865,239.43931 918.27191,247.09863 916.19763,252.38981 C 914.34415,260.56609 914.42389,269.20263 911.97986,277.18963 C 908.87434,281.53704 906.50165,277.77138 907.36177,274.16637 C 902.24649,272.59935 896.00634,270.85852 896.87916,263.73673 C 897.82492,255.77479 893.11837,249.36753 886.96615,245.02563 C 885.24064,239.90207 883.85896,233.10762 876.50838,233.68294 C 875.2601,233.58491 874.00474,233.59743 872.75646,233.6875 z M 850.75646,240.84375 C 844.73527,242.55453 835.57345,244.65788 835.08208,252.22078 C 835.31861,260.30172 843.93027,258.99196 847.05896,253.40428 C 851.01433,250.09647 860.60009,244.84932 852.07495,240.84048 L 850.75646,240.84375 L 850.75646,240.84375 z M 1020.6003,241.84375 C 1011.9216,244.04408 1014.9974,255.29479 1020.1832,259.63462 C 1023.8968,266.90256 1031.6203,269.37309 1039.2384,268.73492 C 1045.8608,269.48778 1047.7985,277.37432 1050.0167,282.60362 C 1050.9394,290.00455 1046.1819,297.19838 1048.7193,304.71646 C 1051.8938,310.66818 1048.9834,318.66202 1053.8611,323.67984 C 1059.4273,324.81772 1065.0794,326.74905 1069.9681,329.52853 C 1073.99,328.29792 1078.0074,319.91171 1081.7374,326.84922 C 1088.2894,331.27217 1096.6363,328.01405 1104.0021,329.06425 C 1112.2374,329.10685 1121.1365,327.8251 1127.5377,322.1875 C 1132.6944,328.92004 1142.3267,327.11443 1149.176,324.4361 C 1156.4877,322.86964 1158.4101,313.96239 1159.0199,307.90277 C 1157.6375,303.07076 1161.5811,297.16155 1155.9501,293.30889 C 1147.6449,283.13241 1132.9525,279.40285 1120.5065,282.9375 C 1115.5856,287.45514 1109.3873,289.97827 1103.3592,292.49794 C 1097.1246,295.32327 1090.6346,291.36311 1084.2491,291.12603 C 1078.8245,290.30201 1073.8909,289.967 1073.0601,284.01688 C 1068.2206,280.60384 1068.3019,275.73414 1070.0855,270.8354 C 1069.6559,264.63552 1062.3535,263.22548 1062.2834,256.74514 C 1057.3501,250.81504 1047.854,257.98494 1042.6773,252.25919 C 1040.6056,246.57293 1035.0464,243.06651 1029.1845,242.36435 C 1026.3519,241.88495 1023.4684,241.77196 1020.6003,241.84375 z M 988.94396,252.3125 C 984.76198,253.66393 974.75808,259.01117 979.89342,263.53958 C 985.64389,265.10062 991.16344,276.65916 981.9865,276.49873 C 975.48446,274.5825 973.71325,266.92064 968.48285,263.3776 C 963.88542,260.59875 955.65461,261.91053 955.78771,268.5 C 962.76766,272.00746 969.10115,277.91604 968.1534,286.13205 C 971.83552,292.41784 980.91496,285.6346 984.53994,290.57815 C 983.03841,294.71815 981.91631,299.48257 986.83437,302.41961 C 991.81115,305.87349 998.81347,309.84816 1004.7494,306.35979 C 1007.6247,299.37423 1006.1407,290.35247 1008.0526,282.62884 C 1007.8991,273.92878 1008.8615,265.23243 1008.3815,256.53125 C 1002.7104,252.56972 995.50557,253.01221 988.94396,252.3125 z M 781.19396,272.28125 C 774.14155,275.77605 780.09814,284.87176 776.1412,290.33584 C 771.27831,300.62618 761.88854,307.79698 756.44549,317.74752 C 751.88699,324.81321 747.09846,331.97342 740.38146,337.1875 C 738.31084,342.97665 745.01266,346.99241 746.67448,352.06845 C 751.10634,359.51952 752.12529,368.30862 752.86342,376.75794 C 756.61392,381.19457 763.80512,377.05848 768.84252,377.59441 C 775.42583,377.08845 783.50108,376.10981 786.62706,369.36811 C 789.9546,364.16168 792.72179,357.89738 798.63146,355.125 C 801.97019,348.54299 810.05606,352.59951 804.92651,358.5374 C 802.0176,363.31048 795.49678,367.30507 797.31534,373.71261 C 802.68835,378.14662 800.45584,388.80619 809.30589,388.95902 C 811.43876,389.44179 817.38546,388.79588 812.51257,391.09788 C 806.71747,395.13682 791.08624,393.2297 795.80489,403.88385 C 796.82543,412.01412 805.18315,414.07678 811.76497,416.00651 C 819.88487,418.43461 828.57211,418.91087 836.46078,422.01819 C 842.26453,425.25459 846.5129,430.48825 851.03771,435.21875 C 838.69781,432.98578 827.45229,424.83919 814.47023,426.59499 C 808.35742,425.58158 802.04202,426.16646 797.72451,429.93064 C 790.01465,427.55961 796.55539,437.96981 796.26661,442.01598 C 796.61898,448.30678 799.97528,453.81806 805.61881,456.72071 C 810.09667,459.44255 815.09308,461.11068 819.97521,462.9375 C 826.03791,469.72229 821.88384,479.45464 824.91271,487.28125 C 829.70815,491.34416 836.65746,489.29151 842.36986,490.76368 C 852.15543,491.50522 862.15682,492.41199 871.81896,490.15625 C 878.19333,484.1828 888.80058,488.48661 894.58815,481.63191 C 896.94688,475.36415 900.67009,482.20045 902.12655,484.78794 C 913.23695,490.35413 922.20616,502.0603 935.66931,501.51576 C 943.54148,501.88127 952.2212,492.96059 946.86583,485.41549 C 944.96017,482.24447 940.40908,475.10248 943.55836,473.32001 C 948.15584,475.47217 957.77426,479.75936 959.66728,472.5239 C 961.13268,464.30752 954.16436,457.91501 948.57794,453.0123 C 940.90991,446.13167 931.20216,438.69779 930.88146,427.4375 C 933.55349,420.50095 935.94539,413.28251 932.35823,406.22016 C 930.30846,394.6551 930.42918,382.854 930.75646,371.15625 C 934.74441,364.94353 942.52994,359.89619 941.87025,351.67771 C 940.64509,341.63142 925.29889,336.45383 919.25646,345.28125 C 916.10236,348.5349 922.42296,356.97253 916.0884,352.15696 C 909.51397,348.83025 902.50446,355.97725 903.56705,362.5486 C 905.09412,368.83371 903.64804,375.17215 904.57954,381.50383 C 905.13517,387.25848 905.98657,393.44559 903.35021,398.84375 C 896.33818,400.51084 899.9499,389.32289 899.5329,385.33511 C 899.42878,376.26368 896.38635,367.3388 891.38146,359.8125 C 889.16346,362.01781 884.11821,363.17121 887.2491,358.69413 C 888.68427,352.96335 881.48863,360.24784 879.59724,361.17943 C 873.52955,358.51802 867.88768,353.42062 861.50646,350.5625 C 859.88714,354.46783 851.34404,355.89392 854.69112,349.84713 C 858.04523,344.69983 858.42715,332.04288 849.24173,335.42748 C 846.38571,336.17391 838.55662,336.92016 838.90634,334.88611 C 844.75149,332.7678 847.36256,326.00902 844.50901,320.51584 C 842.37862,313.24848 840.82416,305.45026 836.40529,299.18145 C 830.1487,294.95642 820.30913,299.20551 816.12254,291.07891 C 811.90796,286.57225 810.18673,279.05682 803.21954,278.12822 C 796.08339,275.51761 788.80036,273.02654 781.19396,272.28125 z M 952.35021,290.09375 C 945.04042,289.84311 943.6445,303.98587 952.41418,301.31304 C 961.18248,303.59983 959.22228,291.19478 953.22039,289.98922 L 952.35021,290.09375 L 952.35021,290.09375 z M 1028.7253,290.21875 C 1020.5461,290.61614 1017.0482,299.30499 1014.6648,305.8947 C 1010.8039,313.63696 1021.1472,317.62909 1026.113,321.17486 C 1031.2462,327.35646 1044.2574,324.41691 1042.4618,315.18711 C 1041.6053,308.06058 1043.6768,299.17427 1038.4038,293.49727 C 1035.73,291.25379 1032.16,290.31016 1028.7253,290.21875 z M 539.44396,382.0625 C 503.45334,435.7034 466.78126,488.89613 431.42125,542.9544 C 430.02067,548.96162 438.42298,549.49779 441.48961,553.02438 C 445.34959,552.47075 456.06213,553.59363 452.93432,558.62645 C 447.98709,562.62402 440.81294,570.29899 448.48796,575.2182 C 447.8446,578.36515 441.50251,578.5775 443.69094,583.96235 C 444.79834,589.1675 447.37921,594.13984 447.12995,599.65784 C 447.82495,603.4295 445.7948,610.43343 447.068,612.14518 C 454.25253,607.95977 464.18508,607.7502 469.03771,600.15625 C 475.43725,597.40817 483.87816,603.46227 483.56454,610.65646 C 484.44617,617.7316 487.19713,624.40805 488.13301,631.50604 C 490.69669,645.9106 492.02358,660.52047 493.0176,675.09972 C 492.59134,685.42677 485.97099,696.0134 490.93559,706.14728 C 493.31474,714.58923 500.87721,720.57747 503.58043,728.51656 C 505.88467,737.20884 497.69059,742.18088 495.46113,749.38997 C 494.98629,757.49809 488.83775,763.06415 481.41249,765.24859 C 473.81182,767.02698 470.28404,774.18022 471.27049,781.46583 C 470.60633,790.47309 471.04487,800.0495 475.95332,807.91496 C 476.04598,813.31102 468.7085,817.56374 473.15707,823.39741 C 477.14934,828.28726 480.09866,833.79822 479.98752,840.2666 C 481.01707,844.6554 482.0683,847.5989 477.60505,850.1294 C 473.4153,856.5214 476.62699,864.4211 475.36134,871.5041 C 473.94201,880.3978 482.41117,883.9563 488.16066,888.2428 C 493.3953,896.6687 481.91763,897.4348 479.76967,889.9361 C 475.03959,884.4366 470.752,878.0421 463.97521,874.875 C 457.68656,875.2174 455.05262,881.7864 458.3742,886.7533 C 460.71707,896.9135 465.33058,906.3055 470.4624,915.2996 C 474.4174,922.9187 477.95653,930.7668 480.74029,938.8786 C 487.05778,942.512 488.07483,948.8929 491.31595,954.8554 C 495.24379,960.4587 500.25649,965.7906 506.51362,968.7082 C 511.26135,971.4009 520.00072,969.9915 515.6491,963.0631 C 513.29868,957.5221 514.92603,951.132 511.63067,945.8975 C 508.84407,940.0645 503.45539,935.6359 501.68602,929.3421 C 501.14188,925.6686 505.10404,922.6617 505.4661,927.6601 C 509.76881,931.9346 512.08555,937.6735 516.75189,941.5343 C 524.07782,945.0974 518.69675,956.6642 528.36366,957.5614 C 551.20638,965.6443 573.63398,974.9516 596.39743,983.2959 C 618.32804,991.4431 640.47807,999.0838 663.10021,1005.0938 C 668.92382,1003.6944 674.52122,1009.9334 680.85342,1010.4017 C 696.82713,1015.1285 713.21139,1018.5637 729.16241,1023.2269 C 734.93677,1022.2531 739.65568,1026.4126 745.51354,1026.8703 C 769.68684,1032.2856 793.74657,1038.2582 818.0923,1042.8664 C 835.99928,1046.1011 854.1003,1048.7551 872.32759,1048.7361 C 882.37029,1049.4594 892.03984,1052.6415 902.11276,1053.2263 C 928.40897,1056.4662 954.78895,1059.6585 981.31896,1059.875 C 981.17944,1056.6158 982.89969,1048.0596 985.46008,1049.8283 C 987.28164,1055.2159 995.38952,1056.978 993.03455,1064.184 C 993.45231,1071.8397 1001.7738,1071.1994 1006.8941,1073.8845 C 1013.3787,1076.5052 1020.7972,1072.552 1026.9616,1076.5785 C 1030.9739,1080.7115 1036.5473,1082.2415 1041.4261,1085.349 C 1048.7795,1087.9212 1056.8877,1087.2312 1064.5537,1088.3977 C 1070.6435,1088.7659 1077.3542,1092.5409 1082.9189,1088.2876 C 1087.2068,1082.587 1094.0429,1079.9171 1099.1128,1075.0636 C 1100.2192,1071.7097 1100.6539,1066.8269 1105.9033,1066.7213 C 1112.3303,1066.6058 1117.3831,1073.1374 1124.1738,1071.2597 C 1129.4496,1069.9895 1136.8668,1069.6725 1135.6133,1077.4015 C 1134.9716,1086.1927 1143.5323,1089.6886 1150.4671,1091.8894 C 1158.5697,1092.7324 1161.4862,1099.8705 1164.7606,1106.2391 C 1166.1091,1109.0821 1168.5454,1111.539 1164.4742,1112.227 C 1165.3784,1116.3767 1169.451,1119.8622 1170.5093,1124.5279 C 1176.4736,1126.7584 1180.6571,1133.3566 1187.4173,1133.6793 C 1200.0346,1133.827 1213.0148,1133.1987 1225.2253,1137 C 1233.321,1137.0721 1241.3987,1140.3131 1245.657,1147.436 C 1250.7919,1152.5585 1257.9444,1158.7558 1255.925,1166.869 C 1254.4898,1172.9384 1247.0859,1171.3778 1243.4443,1168.4369 C 1237.1033,1164.9268 1233.2079,1158.2839 1226.7565,1154.9375 C 1226.8208,1160.3266 1233.6051,1162.6056 1233.7233,1168.1648 C 1233.9987,1173.9762 1227.7145,1177.3956 1227.6339,1183.2013 C 1226.2388,1191.5488 1229.9107,1200.6193 1225.8525,1208.4756 C 1221.2755,1213.0133 1218.029,1218.3324 1217.11,1224.7378 C 1219.7859,1229.4848 1218.3108,1237.7778 1211.2714,1237.514 C 1207.4592,1236.6688 1201.1424,1245.6335 1208.3456,1243.3452 C 1216.1618,1244.1997 1222.4388,1239.5239 1226.8089,1233.5737 C 1231.6504,1228.052 1238.159,1221.1547 1246.3057,1223.3811 C 1249.5731,1224.0973 1258.7443,1225.2646 1258.1586,1223.3284 C 1250.6739,1216.8747 1264.81,1213.5664 1269.6237,1212.4756 C 1274.7835,1212.4647 1283.8381,1210.2308 1276.9811,1204.6954 C 1271.8936,1204.4128 1263.3052,1201.6865 1269.017,1195.3217 C 1275.6966,1185.5555 1288.2304,1183.1228 1299.0577,1180.9045 C 1305.3758,1180.2342 1314.3012,1180.7908 1316.9753,1173.5625 C 1321.6163,1170.2804 1326.0382,1166.7748 1328.9807,1161.8239 C 1335.8034,1153.6052 1343.3668,1146.046 1350.944,1138.5312 C 1352.9661,1130.9644 1357.4628,1141.7985 1362.2489,1139.8848 C 1372.3749,1138.5469 1382.3713,1136.2639 1392.4511,1134.5271 C 1398.0067,1133.1765 1404.2266,1132.0238 1407.7691,1127.1062 C 1413.3071,1122.0882 1419.2299,1116.2969 1419.666,1108.3369 C 1422.4938,1091.8447 1422.2049,1074.0223 1431.319,1059.3438 C 1438.5323,1060.4342 1445.1571,1057.3301 1451.8287,1056.8886 C 1459.1883,1057.8857 1466.5799,1063.9503 1465.8697,1071.9462 C 1466.7081,1082.0484 1469.9107,1092.9254 1478.4573,1099.1337 C 1481.2796,1105.6856 1487.4517,1111.0793 1494.9197,1107.9502 C 1500.7672,1105.7829 1502.1739,1099.8289 1508.6366,1099.0118 C 1514.5333,1095.3994 1517.947,1089.1055 1523.069,1084.625 C 1526.8699,1084.8458 1525.0498,1090.4068 1527.8534,1092.0464 C 1525.6047,1097.0501 1520.6139,1100.5341 1517.5152,1105.2151 C 1512.2451,1111.4949 1506.146,1119.6439 1509.174,1128.2976 C 1510.88,1135.4507 1517.2292,1141.6799 1524.8706,1141.3477 C 1529.6185,1139.034 1532.6842,1134.0713 1536.2509,1130.2508 C 1540.9012,1123.8468 1543.7458,1116.346 1545.8815,1108.7812 C 1549.7894,1106.6497 1555.1564,1107.8608 1556.2141,1102.0277 C 1561.156,1095.8103 1569.1792,1093.2205 1574.4691,1087.2983 C 1579.8812,1082.3888 1585.2051,1077.2499 1589.2565,1071.125 C 1586.0642,1063.0898 1597.7029,1060.8237 1601.6566,1056.1056 C 1607.1403,1051.3437 1605.725,1042.7324 1598.5635,1040.7596 C 1592.2172,1038.8767 1594.2644,1031.6272 1592.4876,1026.8183 C 1587.6856,1019.304 1584.5566,1032.633 1583.2032,1036.5004 C 1581.6071,1042.2346 1577.2389,1047.8963 1577.808,1053.8274 C 1579.1518,1057.2877 1587.0992,1062.1725 1584.678,1064.0718 C 1576.5899,1062.4733 1568.4431,1061.5017 1561.1315,1065.8307 C 1554.4195,1068.4245 1547.2214,1066.9789 1540.373,1068.1745 C 1537.5835,1068.7019 1528.954,1073.7295 1534.2159,1068.2805 C 1538.0488,1065.6737 1536.56,1061.6034 1532.0739,1063.6626 C 1524.7825,1065.3358 1519.2516,1060.1434 1515.5692,1054.697 C 1512.3228,1047.4912 1506.9434,1039.5075 1510.7397,1031.4212 C 1515.5496,1025.8438 1508.0626,1024.153 1504.1875,1027.3504 C 1498.9541,1024.9269 1496.8554,1037.0411 1490.4753,1032 C 1484.6017,1028.6457 1493.1237,1026.0944 1496.4611,1026.6002 C 1502.5858,1025.405 1506.1775,1018.4169 1509.636,1013.5088 C 1514.3433,1005.0097 1507.7926,992.9528 1497.9753,992.75 C 1483.5529,991.1632 1472.4013,1002.0923 1461.1284,1009.2305 C 1448.1557,1017.0228 1437.9724,1028.4745 1428.4244,1040.0235 C 1421.7401,1044.2427 1428.4189,1032.1034 1429.8383,1029.5817 C 1434.2597,1020.0297 1439.7951,1008.9181 1450.8503,1006 C 1456.3224,998.1392 1454.1793,987.2351 1460.4127,979.75 C 1480.3784,967.912 1503.5336,963.7395 1525.3186,956.5172 C 1539.8838,952.3946 1555.5133,948.4693 1566.6305,937.5065 C 1571.9715,928.0169 1575.1251,917.4523 1580.0571,907.8123 C 1585.9026,900.4002 1594.18,895.5365 1600.8503,888.9688 C 1606.8102,890.6056 1600.4406,899.3588 1601.5499,903.9238 C 1599.2337,924.2027 1599.3856,944.6653 1600.1627,965.0312 C 1597.5572,969.9317 1595.3907,975.2556 1600.3461,979.1837 C 1600.7225,985.1638 1593.5186,989.3658 1596.0996,995.5199 C 1599.027,1004.4916 1607.5332,996.8965 1613.1196,995.4076 C 1620.8158,992.3943 1629.0063,990.8516 1636.8421,988.4069 C 1643.4799,983.5114 1650.8233,980.3919 1658.9399,980.1712 C 1667.1951,976.84 1664.9315,987.8078 1659.8302,989.9161 C 1653.0456,997.2224 1669.6414,996.8092 1672.0818,991.5754 C 1675.6374,984.8766 1673.7403,975.2565 1680.8102,970.2654 C 1684.5902,968.1776 1683.9347,959.8258 1685.7962,958.9434 C 1689.1111,966.2856 1687.0295,975.1099 1691.3234,982.0863 C 1694.6183,983.2242 1697.5837,974.2387 1699.2479,981.4616 C 1705.6749,985.3878 1711.2758,976.3977 1710.6935,970.5954 C 1710.3701,965.0407 1711.2132,957.4709 1708.4251,953.1686 C 1705.2143,954.4965 1699.5621,959.4235 1698.6812,952.7487 C 1696.1682,943.96 1690.5777,954.7165 1687.3576,957.4988 C 1685.0586,960.0786 1687.7145,952.3149 1686.2615,950.3784 C 1684.3621,944.0173 1694.4645,940.8331 1690.8265,934.3008 C 1686.469,931.695 1678.978,937.3036 1675.857,931.124 C 1679.3618,925.5584 1675.0706,915.6671 1667.0571,918.5175 C 1656.4899,919.873 1647.4659,928.0239 1636.4443,926.6924 C 1635.5415,922.6476 1635.6048,914.8343 1628.2665,916.0983 C 1624.2363,914.6522 1620.3238,926.315 1620.5312,918.0956 C 1621.2071,906.1175 1624.6593,893.5465 1620.3365,881.9034 C 1617.4395,874.6352 1609.5128,887.2256 1608.9994,879.4636 C 1612.3656,875.0054 1617.1228,868.5385 1611.8786,863.52 C 1608.1448,857.5486 1600.7043,852.3344 1602.1189,844.4308 C 1605.7026,837.54343 1594.6288,837.00403 1590.9981,832.95905 C 1585.7959,828.32015 1578.8581,831.02687 1573.2897,829.94879 C 1570.6057,823.81827 1563.9262,824.23233 1558.4096,825.24976 C 1555.1199,825.00438 1564.2942,821.71057 1564.6087,818.67553 C 1565.9548,812.03185 1555.2692,811.73167 1550.5114,810.76582 C 1544.8731,815.21921 1537.7016,813.45826 1531.1531,811.65403 C 1523.7614,812.02255 1515.463,811.67258 1511.2006,804.75033 C 1505.0359,800.45929 1497.0235,800.7077 1490.4342,797.39144 C 1484.9182,796.23437 1481.9993,790.54141 1481.3791,785.44292 C 1483.4003,779.38957 1484.2389,771.23333 1475.6344,770.51417 C 1467.4106,768.82393 1471.5495,758.3035 1465.5957,754.03328 C 1460.2278,751.81498 1455.1073,749.60071 1451.5502,744.46974 C 1446.6452,740.12225 1444.2021,732.56418 1437.8503,729.03125 C 1432.9053,724.22674 1426.8288,720.67401 1423.0815,714.69496 C 1419.977,711.33374 1412.8826,703.41967 1410.1748,705.34351 C 1412.0633,709.93547 1408.707,711.54052 1405.3905,712.35703 C 1402.2317,716.82802 1400.9599,723.11749 1402.2985,728.42003 C 1403.7601,735.68077 1405.2777,744.58425 1400.0216,750.67218 C 1394.5154,754.87927 1396.0493,763.50391 1389.431,766.95563 C 1382.4288,772.1143 1375.8039,762.23083 1369.9683,759.14254 C 1365.954,755.86577 1357.9264,761.47857 1356.7303,754.16085 C 1354.4816,749.20984 1349.481,745.61085 1349.4202,739.78126 C 1347.2538,730.16088 1341.9946,720.51722 1344.467,710.46019 C 1342.7003,705.6201 1334.1397,706.7565 1329.4092,705.34079 C 1323.9129,704.11447 1317.1048,704.75789 1312.8148,700.78006 C 1312.1257,693.58088 1307.3066,689.48437 1301.0598,686.58743 C 1293.669,682.00651 1285.9919,677.73704 1277.694,675.03125 C 1271.5896,679.36379 1265.4129,687.13104 1256.999,683.77827 C 1247.2771,681.90634 1236.8583,678.48581 1227.194,682.46875 C 1222.8727,686.12991 1219.9354,692.67118 1223.3017,697.91661 C 1226.3057,704.59522 1231.223,711.37122 1229.6627,719.09375 C 1228.3382,727.85138 1231.3952,736.11788 1236.5528,742.9534 C 1238.6994,749.78 1243.1558,757.43071 1238.0051,763.37441 C 1238.8076,771.86053 1231.5496,776.98575 1230.3178,784.95653 C 1228.0192,793.24763 1236.4479,798.02464 1242.1541,801.94853 C 1249.9557,806.80863 1257.7689,812.89793 1260.5765,822.05984 C 1265.3198,834.90435 1269.1544,849.4323 1264.1593,862.8053 C 1258.4844,878.6753 1245.7784,890.9405 1231.8981,899.9081 C 1226.2432,903.4304 1231.4403,908.273 1232.555,912.7044 C 1234.7997,918.1828 1242.0241,922.2559 1240.2546,929.5171 C 1240.9204,938.0632 1246.0486,945.3988 1248.7249,953.3864 C 1252.5372,960.104 1255.8469,968.6377 1250.0576,975.259 C 1246.3293,978.8092 1252.9168,985.7171 1246.3941,984.1674 C 1241.7469,985.5763 1245.9721,993.1007 1239.5088,993.4028 C 1233.4244,995.5327 1226.5617,992.4594 1225.9245,985.6074 C 1222.2611,976.5494 1212.1802,972.5848 1207.1932,964.4342 C 1203.2612,958.2024 1195.2027,951.7456 1197.1158,944.5277 C 1196.0722,937.3238 1194.6241,930.1465 1192.8915,923.0679 C 1189.0655,917.3151 1192.0331,911.403 1192.2416,905.0097 C 1193.3088,900.1158 1192.8907,895.7297 1186.9781,895.2257 C 1174.7948,891.3769 1161.8356,894.0362 1149.394,892.6433 C 1142.2237,890.4403 1138.3086,881.8835 1130.193,881.9229 C 1123.3761,879.074 1117.5378,874.1538 1109.9663,873.4344 C 1102.72,869.6111 1100.3613,860.463 1092.8813,856.8764 C 1089.1901,853.7469 1084.7831,855.4592 1082.0259,850.9644 C 1075.4617,848.8808 1067.8497,849.0619 1062.3919,844.384 C 1053.1333,841.9453 1044.2814,850.095 1035.1003,846.4688 C 1037.2002,834.08318 1030.2657,822.54115 1030.2949,810.25207 C 1029.7487,803.0668 1022.5954,799.72613 1016.218,799.35778 C 1007.7572,799.62548 1003.7561,792.28931 1005.511,784.65974 C 1005.7983,774.75167 1008.0155,764.96767 1007.694,755.03125 C 1010.6197,744.9132 1016.3493,735.86504 1019.194,725.71875 C 1026.5637,717.22845 1030.6468,706.29899 1039.0863,698.68831 C 1044.4464,695.87648 1041.2958,686.134 1049.069,688.40625 C 1056.7676,689.20102 1063.0185,682.15867 1061.4698,674.67146 C 1062.0965,669.62023 1056.312,667.90812 1054.1369,665.33803 C 1058.8469,662.78051 1069.5871,669.22357 1069.2877,660.71875 C 1070.2316,653.46062 1078.7832,654.65972 1084.0027,654.70621 C 1091.7334,654.04505 1094.4674,646.52844 1097.6983,640.77312 C 1102.0376,634.06669 1108.6709,627.08416 1107.1321,618.44438 C 1099.1237,612.83263 1109.8977,604.81718 1113.3361,599.38213 C 1118.7042,595.24416 1118.8348,585.62727 1112.0597,582.4633 C 1107.4489,578.73276 1118.0938,578.26816 1120.6025,578.17614 C 1125.3651,579.74325 1129.0622,587.15203 1135.0533,582.82297 C 1138.3523,581.90231 1145.5557,585.74268 1143.811,578.79699 C 1147.4078,575.16431 1154.3283,581.67752 1157.2681,575.02252 C 1162.4968,566.09371 1169.9279,556.98016 1169.1649,546.01265 C 1169.2482,539.62808 1162.6198,537.26034 1160.2743,532.08147 C 1159.6456,527.11358 1151.5163,521.26874 1158.9181,518.07506 C 1163.7182,515.00628 1169.5192,510.9769 1164.1241,505.16671 C 1160.1363,500.70529 1167.8149,495.03476 1160.4936,492.3847 C 1154.4444,488.92 1149.2922,483.74168 1143.1508,480.64128 C 1138.463,478.79767 1129.6365,475.481 1128.4366,472.66606 C 1137.4437,471.6037 1146.6202,474.80523 1155.5065,472.28125 C 1160.8117,467.27194 1168.6834,471.64493 1175.1027,470.04592 C 1179.3724,469.22425 1187.603,471.32025 1189.2886,468.50677 C 1188.1183,461.43901 1195.4891,462.84869 1198.0202,467.20315 C 1201.2514,470.45687 1207.838,475.19232 1208.1763,478.36603 C 1202.1165,481.52523 1207.6943,489.97369 1212.8227,484.52679 C 1218.7128,481.96619 1222.3103,488.81389 1215.9874,491.25418 C 1211.9105,494.46697 1214.6722,501.87657 1219.8908,497.65611 C 1224.2394,494.95066 1233.827,488.01293 1234.2021,496.99241 C 1237.5119,502.7055 1245.452,503.90712 1248.069,510.1875 C 1256.0021,518.75494 1264.5134,528.61473 1264.8815,540.90625 C 1262.6225,549.27891 1257.0057,556.19615 1253.7301,564.1534 C 1249.2955,570.45222 1252.6651,576.83772 1258.7205,579.89852 C 1263.5064,584.79667 1259.4324,589.97586 1253.7385,590.63969 C 1248.8728,593.42602 1244.2647,597.36822 1238.2446,596.93782 C 1231.685,597.20981 1224.7225,595.65049 1218.5377,598.5625 C 1217.8563,604.50636 1215.0828,609.2419 1211.9119,613.76512 C 1211.1969,619.77984 1213.035,627.84465 1219.1885,630.37674 C 1225.288,632.84048 1231.9576,631.40517 1238.319,631.40625 C 1243.0126,625.89034 1249.5735,623.31026 1256.1459,622.45907 C 1260.8516,618.29986 1267.7726,618.73879 1272.6855,622.26767 C 1277.8862,627.35742 1282.6915,632.5632 1289.9286,634.73707 C 1294.9668,636.59054 1296.9284,640.62278 1294.8044,645.43431 C 1298.1105,653.8386 1308.1703,655.2677 1315.5689,658.39128 C 1322.6707,659.32178 1330.7223,658.65152 1335.4156,665.2484 C 1340.9895,669.26726 1348.0683,667.24788 1354.3945,668.33547 C 1362.2055,668.93126 1370.0429,669.56482 1377.8815,669.1875 C 1379.141,662.55612 1379.6014,654.59918 1371.5071,652.47583 C 1362.1489,646.39563 1352.02,641.65811 1342.0377,636.71875 C 1340.3201,632.29625 1331.6096,627.46469 1331.6979,626.36434 C 1340.087,624.19453 1346.7608,630.09487 1353.5789,633.62687 C 1363.7117,638.27353 1374.2884,642.0831 1385.2565,644.1875 C 1387.1883,637.31718 1385.6169,630.06213 1386.6142,623.04558 C 1388.3669,615.93553 1382.3892,611.87322 1378.2194,607.39898 C 1373.266,601.85505 1368.6575,596.01137 1363.6315,590.53125 C 1361.3842,583.30048 1351.7508,585.92926 1346.7536,581.76705 C 1340.1992,577.54919 1337.2274,568.33791 1328.7727,567.0773 C 1325.7792,566.3209 1321.2243,565.99238 1326.6594,564.70244 C 1333.4046,562.72296 1331.9782,554.05226 1326.5786,551.34981 C 1327.38,550.13227 1335.4678,543.47878 1338.7568,548.95057 C 1344.1056,552.76165 1351.0162,554.68196 1354.5187,560.68663 C 1358.1779,565.99691 1362.5373,571.84508 1369.4542,572.64509 C 1374.5647,575.46231 1383.4638,578.05922 1386.1864,570.92405 C 1385.3395,566.57368 1377.0866,561.10272 1382.2653,556.7334 C 1390.2466,555.02327 1387.1206,545.49188 1389.2603,540.02583 C 1384.6149,533.30208 1393.7126,528.5347 1391.598,521.06796 C 1391.6385,514.85261 1384.8946,509.73947 1379.0724,512.42687 C 1374.9773,515.57336 1366.8527,516.94256 1367.119,509.58455 C 1362.9197,506.00437 1355.5203,509.66722 1352.2549,503.39078 C 1348.1476,495.54428 1340.0619,497.13025 1332.7608,496.6217 C 1325.0245,495.75254 1317.7287,492.66404 1311.1184,488.70798 C 1305.9043,487.90707 1300.7739,483.31809 1304.1639,477.92522 C 1304.7108,473.55631 1301.3724,467.32456 1308.238,469.07715 C 1314.3252,467.82095 1319.5766,462.4004 1312.004,458.54869 C 1306.1626,456.17941 1306.781,450.40971 1304.8314,445.47242 C 1302.3613,440.28608 1297.983,435.05768 1292.1742,433.86843 C 1289.357,436.95004 1283.5944,437.29394 1286.0553,431.66703 C 1285.9186,425.83012 1277.4756,420.78955 1271.9554,422.77427 C 1266.1583,428.59831 1262.4005,418.62344 1258.0245,415.97466 C 1254.1633,411.51843 1252.8913,404.52019 1246.1384,403.32917 C 1239.3589,399.69739 1235.8534,405.59286 1234.2565,411.40625 C 1228.717,405.57647 1221.4971,400.822 1219.2044,392.92101 C 1212.4315,391.4303 1213.5161,381.92814 1206.6086,380.18185 C 1202.4196,378.95582 1191.3537,377.4764 1195.7479,371.09124 C 1195.0108,365.27804 1189.6185,360.06126 1185.3689,355.91982 C 1179.9445,350.93273 1172.504,349.26121 1165.3218,349.55941 C 1160.1886,348.84672 1150.1059,350.05835 1155.8681,357.00051 C 1159.1096,359.84761 1157.3007,367.3829 1153.2118,361.83862 C 1150.9633,356.42848 1147.2935,349.48627 1140.1657,351.60067 C 1132.7146,352.32378 1125.6577,356.23023 1121.7981,362.75651 C 1118.3887,367.45291 1117.4279,373.51008 1113.0348,377.49017 C 1108.7101,382.04214 1109.6086,388.66089 1111.9815,393.89968 C 1114.3458,397.628 1115.0378,399.65927 1111.8278,402.85479 C 1110.8501,408.66654 1105.1039,410.49813 1105.5512,403.29948 C 1104.6722,397.16625 1104.2812,390.84761 1104.6904,384.70775 C 1106.5477,377.54475 1109.3268,370.53817 1112.5914,363.96047 C 1118.0511,359.97934 1118.3176,351.20459 1110.3597,350.22996 C 1099.3762,346.5794 1086.3656,352.9013 1082.5677,363.88356 C 1072.2868,384.95709 1065.8517,409.28616 1071.0272,432.64314 C 1072.937,439.59767 1080.9423,435.05201 1085.5012,438.44847 C 1089.0834,439.75822 1091.3444,442.11598 1085.9293,441.82529 C 1080.9464,441.49449 1070.6703,441.66474 1074.7141,449.16792 C 1077.1144,455.44501 1082.3801,460.37173 1088.1675,463.54764 C 1093.7876,466.56977 1104.2311,459.01689 1105.2215,467.79172 C 1107.5864,474.22551 1114.5834,472.1207 1119.1163,472.75763 C 1119.8547,477.16388 1113.7838,481.30101 1116.2341,486.85254 C 1116.9035,492.42826 1120.6193,496.96665 1122.296,502.10786 C 1121.1268,508.44914 1115.8077,513.24364 1114.645,519.78273 C 1111.4077,528.03241 1108.803,536.59749 1108.0802,545.45509 C 1107.085,551.58176 1099.658,554.83421 1097.5093,547.62501 C 1093.6244,542.35546 1089.2006,535.95391 1091.1315,529.0625 C 1097.3671,522.1868 1093.8083,511.80171 1088.3442,505.64376 C 1083.8434,502.87494 1080.7993,492.72872 1074.5293,497.30141 C 1068.8016,499.91466 1071.6475,509.26724 1066.722,510.88894 C 1064.1188,506.27459 1059.6691,501.57246 1058.8911,496.03406 C 1060.2108,491.38979 1071.2264,494.85548 1070.0717,489.4543 C 1065.2039,486.47781 1058.9643,484.05542 1053.3327,485.8205 C 1046.8704,487.70683 1044.243,481.30212 1047.0393,476.34385 C 1048.0603,473.03863 1046.2411,467.85232 1051.0257,470.20854 C 1055.522,465.11667 1047.7868,458.56959 1046.0207,453.36259 C 1042.728,447.8079 1040.9904,441.31285 1042.0075,434.87992 C 1041.9283,425.60372 1032.8945,421.16946 1028.5786,414.20676 C 1026.6221,411.45529 1023.3446,409.60004 1028.4269,409.25011 C 1035.6484,407.72909 1033.5327,400.27903 1034.4471,395.03448 C 1035.7613,387.83278 1044.3337,391.19394 1049.2293,389.31051 C 1053.364,386.16088 1052.1405,379.32872 1055.5401,375.15382 C 1058.3351,370.1661 1060.6372,364.89775 1062.9747,359.73042 C 1067.4693,355.89673 1067.8382,349.34078 1061.4955,347.37048 C 1055.5261,343.95035 1048.5004,343.26934 1042.2877,340.4375 C 1035.1735,339.52883 1024.3678,340.19104 1022.2203,348.53273 C 1019.3473,358.42145 1015.5689,368.20307 1015.5641,378.66095 C 1015.1296,387.31924 1016.4916,395.96517 1017.9337,404.42685 C 1018.3699,408.39687 1025.7448,408.94555 1020.3771,412.07978 C 1014.8403,416.62211 1010.6905,422.66263 1010.5446,429.47876 C 1004.5703,432.27751 1000.3645,438.59635 1000.7825,445.41195 C 1003.697,451.29023 1006.0913,458.07157 1003.3082,464.54532 C 1002.4562,474.23661 1008.9478,484.16334 1018.5308,486.51198 C 1024.7384,488.57798 1025.1439,494.73662 1023.4715,499.91305 C 1025.7436,506.11607 1030.1811,512.64446 1026.3431,519.32119 C 1023.1688,526.61921 1013.8299,532.20081 1006.2253,528.03125 C 1007.1926,524.25773 995.38288,522.93555 1002.0234,519.64567 C 1007.369,518.63456 1013.5582,514.3474 1011.0353,508.12111 C 1007.0261,497.39826 1002.6083,485.43817 992.36223,479.11849 C 985.40006,476.89252 982.88479,488.72204 977.97521,492.4375 C 974.1636,496.3936 969.78039,504.15867 977.40749,506.85921 C 980.8866,508.32225 992.66796,516.07506 984.45213,517.51175 C 979.73986,515.10726 976.0463,517.83313 976.76218,523.07297 C 974.65819,526.9128 974.8438,535.21894 972.89954,536.44469 C 960.74305,531.56842 947.39027,533.30632 934.69396,531.40625 C 930.40255,525.09367 926.79125,516.90763 917.99229,516.94498 C 910.55147,513.17081 905.91725,505.23469 904.69278,497.16233 C 903.14184,487.39322 892.1652,491.28034 885.80414,493.04586 C 878.61653,493.68854 867.87136,496.84641 870.42209,506.29874 C 873.44432,513.35946 881.41819,509.2774 886.86114,508.73155 C 887.9762,515.07752 872.24759,514.43522 872.30155,521.76508 C 875.12913,526.94463 870.14326,534.50584 866.66488,526.86703 C 863.55428,521.39517 859.36392,516.66244 855.81151,511.47199 C 850.88153,504.11345 841.76539,513.2776 834.5304,511.1553 C 823.88636,510.0323 813.41743,506.79604 803.92401,501.87313 C 797.90244,497.67682 802.86071,490.72241 809.13089,491.51185 C 816.49039,492.25756 820.8398,485.81258 816.27861,479.70118 C 813.36813,472.68961 808.1915,466.17068 800.94396,463.375 C 795.10748,466.43768 789.58577,460.98412 785.489,457.45213 C 778.75205,450.95418 774.32172,441.64885 765.35021,437.78125 C 762.36921,442.67752 759.39023,436.82051 760.91644,433.49678 C 758.67474,426.49048 753.81419,419.25587 746.58786,416.83068 C 739.60602,412.30063 734.63852,419.20048 728.74545,420.96276 C 723.20731,420.99301 723.29786,417.91813 727.39806,415.60641 C 731.49012,411.1967 728.99587,404.20096 728.00825,399.19069 C 720.3256,398.74214 716.36958,412.54572 709.38075,411.83719 C 704.08424,405.48903 707.74072,396.46989 706.67112,388.94458 C 708.66557,381.46743 700.2086,377.02907 694.70101,382.06656 C 689.72925,386.14605 682.84711,382.61058 685.66335,376.13452 C 680.01745,370.37903 670.70299,370.86044 663.20443,371.78131 C 655.9644,373.35603 648.3903,373.1637 641.2166,374.30557 C 636.9233,378.42891 630.55915,375.88066 632.41668,369.51992 C 629.77842,362.07768 618.98178,368.32793 612.98717,367.89358 C 605.4997,366.09052 611.97907,381.2906 604.56897,375.51889 C 600.08363,371.47491 595.67045,366.56987 592.77522,360.92569 C 591.62083,355.49547 588.84815,350.48105 587.79135,344.95483 C 586.40052,340.14878 586.25523,333.86234 580.61059,332.02698 C 574.35051,326.95777 571.77228,334.24365 568.60949,338.84473 C 558.88765,353.25065 549.1658,367.65657 539.44396,382.0625 z M 1050.694,388.53125 C 1050.694,388.53125 1050.694,388.53125 1050.694,388.53125 z M 975.85021,345.8125 C 968.30493,350.73869 967.12437,363.20266 974.43744,368.88883 C 978.51516,372.84439 973.65189,385.34327 968.09253,380.2627 C 964.54031,375.36548 956.80139,373.3355 954.92942,380.96008 C 951.51445,387.96526 956.0778,395.30282 961.20434,399.98111 C 966.27351,404.4789 973.58938,408.77227 973.38362,416.49188 C 973.2427,423.52222 980.69759,431.37921 987.8543,429.3307 C 993.29304,426.29175 996.17055,420.11316 1002.2368,417.94099 C 1008.5975,413.36671 1011.0064,404.7676 1008.9563,397.35977 C 1006.8911,390.91754 1004.9779,383.37953 1001.3034,378.13347 C 992.4267,375.99924 1003.6827,369.54171 1005.5052,365.60558 C 1004.269,359.44549 1010.8349,348.74322 1002.2495,345.99943 C 996.40743,345.4908 991.16882,350.36565 986.21204,350.46665 C 982.77245,348.90398 979.76323,346.12017 975.85021,345.8125 z M 882.10021,361.96875 C 888.01688,366.65013 877.12252,375.47092 876.55798,367.30993 C 876.83388,365.58748 879.66374,358.84107 882.10021,361.96875 z M 1162.194,370.09375 C 1163.6756,377.51887 1172.4171,379.92402 1177.8313,374.89296 C 1181.826,372.9454 1192.3345,373.27815 1192.5086,375.35396 C 1185.471,377.45119 1176.9177,380.34364 1176.0045,388.72253 C 1171.6363,391.83241 1163.2027,391.55488 1162.1643,385.06057 C 1162.002,379.66855 1159.5842,374.863 1158.4523,369.68085 C 1157.6907,364.49448 1160.14,369.15152 1162.194,370.09375 z M 1192.569,475.75 C 1186.6612,481.37 1188.2876,491.31355 1182.8047,497.109 C 1187.6953,500.92222 1192.0663,491.07332 1192.4283,486.57817 C 1192.2207,483.35064 1195.4062,477.76214 1192.569,475.75 z M 711.44396,506.125 C 720.83258,506.68944 730.57772,504.99962 739.63146,508.28125 C 741.77718,514.85837 726.33405,518.53678 733.75332,523.05293 C 740.39498,526.13201 747.3453,528.54604 754.2977,530.80716 C 760.75309,533.53992 754.80651,541.26453 750.26268,542.5597 C 743.82409,548.04499 737.11591,541.9724 730.96412,539.56221 C 723.16724,540.07101 726.26568,555.52156 716.33876,555.01307 C 712.37083,558.8018 703.8042,556.13689 709.70916,550.85418 C 712.72011,549.14591 716.00038,542.79081 709.8138,545.10619 C 703.87778,548.46687 696.2769,554.39974 690.11947,547.90779 C 683.95698,543.64968 690.03839,538.05927 693.8575,534.92 C 698.88986,530.5416 704.74579,527.22485 709.72521,522.78125 C 709.71032,516.23185 701.48145,516.51207 696.83896,515.75367 C 691.97011,516.4618 679.33563,509.1857 688.41459,506.22116 C 696.07514,506.58904 703.74289,505.90231 711.44396,506.125 z M 1222.3815,509 C 1214.4057,510.85593 1212.2365,520.07089 1211.7056,527.12973 C 1210.887,533.91889 1212.4375,543.66124 1220.2567,545.40714 C 1228.3223,545.8949 1236.7759,538.69503 1234.3747,530.1352 C 1234.5453,523.61858 1236.1269,515.1874 1229.5681,511.12723 C 1227.4813,509.68827 1224.9372,508.80369 1222.3815,509 z M 1241.9127,516.34375 C 1233.2692,517.4165 1242.7221,527.85268 1247.8382,524.23528 C 1254.4113,520.42813 1246.5928,515.25581 1241.9127,516.34375 z M 1235.569,525.6875 C 1238.7661,526.46665 1234.8861,521.88591 1235.569,525.6875 z M 1004.3815,540.15625 C 1007.45,542.78584 1008.5004,549.31141 1008.418,553.14696 C 1003.298,550.97038 997.66564,543.70831 1004.3815,540.15625 L 1004.3815,540.15625 z M 1119.069,591.84375 C 1117.5534,595.40698 1121.8179,590.89734 1119.069,591.84375 z M 1123.3815,594.90625 C 1116.3401,595.00925 1117.8032,602.85771 1115.8758,607.64769 C 1113.1435,620.89789 1113.7231,634.49461 1113.319,647.9375 C 1112.2527,652.88703 1100.6958,659.40605 1109.2749,662.97521 C 1114.8096,664.0066 1125.9843,661.84871 1124.3697,670.88168 C 1123.6837,679.73641 1135.9215,676.42715 1138.2095,670.76002 C 1142.1829,664.64365 1149.0315,660.38659 1150.5444,652.7991 C 1150.0423,644.42938 1161.2936,647.55062 1162.7565,653.41057 C 1163.5745,661.32523 1172.8487,658.0383 1177.85,660.14467 C 1184.6058,665.11505 1193.9167,657.49452 1191.9418,649.84672 C 1190.2684,641.04946 1180.5028,644.25595 1174.7717,642.09586 C 1171.8955,635.16756 1168.575,627.44014 1161.493,623.67434 C 1153.9988,618.55106 1146.8687,612.69715 1138.444,609.125 C 1130.5465,609.17004 1132.0153,598.19924 1125.9551,595.35248 L 1124.7388,594.94481 L 1123.3815,594.90625 z M 749.38146,639.15625 C 756.06158,647.52297 764.55565,654.33378 770.56896,663.25 C 779.83954,669.45966 793.78683,667.50843 800.56896,658.5 C 804.32148,655.86317 816.36037,652.54956 815.78804,659.21799 C 813.30826,667.31596 803.54393,668.18749 798.26686,673.7309 C 790.73656,679.42649 782.18326,683.85756 773.03771,686.28125 C 765.70208,685.96188 761.90916,694.91129 754.32693,694.1482 C 742.95405,695.15093 730.53954,692.26058 722.80628,683.29825 C 720.11161,680.23647 712.85259,674.14492 721.18914,674.70049 C 728.25297,674.59583 736.12804,678.23991 741.30285,671.51832 C 745.33384,667.34519 754.97143,672.57673 754.57498,664.12125 C 752.91402,655.41731 748.01622,647.68064 745.7127,639.12983 C 743.78011,633.35104 746.97911,637.83363 749.38146,639.15625 z M 1232.1627,647.90625 C 1223.1847,652.68609 1240.2694,659.15952 1238.735,650.69077 C 1237.2024,648.71245 1234.6469,647.66342 1232.1627,647.90625 z M 1219.5065,656.875 C 1210.3978,660.89152 1228.1228,673.63576 1227.4234,662.84623 C 1226.6651,659.34937 1222.9748,656.88684 1219.5065,656.875 z M 1168.2253,677.46875 C 1160.7182,676.40974 1151.7952,679.33986 1149.3139,687.19869 C 1146.8215,691.70252 1147.0611,700.95506 1154.2311,699.67726 C 1162.6832,699.12008 1170.2867,692.77034 1173.5377,685.16656 C 1175.0342,681.278 1172.6849,677.11677 1168.2253,677.46875 z M 1203.819,688.28125 C 1195.3926,691.52159 1193.3582,706.28606 1202.3308,710.06103 C 1208.3713,710.5483 1209.7822,702.29401 1210.5717,697.66784 C 1210.9047,693.48635 1208.8196,688.05523 1203.819,688.28125 z M 800.47521,748.4375 C 804.52544,748.94931 808.93841,746.61548 812.32416,750.74024 C 817.8185,753.21163 824.24899,752.61855 829.44768,756.05875 C 832.09627,757.34836 842.18569,761.52935 834.67296,763.24098 C 826.38496,762.86539 817.95177,764.2558 809.59897,763.23777 C 804.62388,763.516 798.20402,759.05743 795.72871,765.01062 C 790.43641,762.33829 789.7705,774.366 782.94082,770.67563 C 774.1005,766.52161 785.88107,758.9082 789.81485,755.57115 C 795.32986,753.8968 797.00651,749.46835 798.41271,744.3125 C 799.10021,745.6875 799.78771,747.0625 800.47521,748.4375 z M 433.06896,758.96875 C 428.16887,762.55571 429.04063,770.0494 428.18302,775.60593 C 426.9412,790.78257 427.31499,806.9992 435.00646,820.59375 C 440.09494,823.46475 435.93329,813.06707 435.42045,810.59688 C 433.22817,803.84291 430.46407,795.44008 435.60021,789.28125 C 440.0538,783.0861 447.0165,778.90558 450.25646,771.8125 C 446.41104,765.87833 440.30414,759.92609 433.06896,758.96875 z M 900.78771,809.90625 C 903.9963,810.71051 903.15355,816.12795 904.98259,818.69686 C 902.97127,823.89791 896.90869,827.32891 897.59437,833.82403 C 897.11519,838.2104 898.64714,849.7733 891.48887,844.8079 C 887.29994,848.7651 885.07954,842.1861 888.49735,839.4916 C 889.10748,832.33105 884.12202,823.90478 891.01503,818.24082 C 894.37066,815.61789 897.66612,812.18672 900.78771,809.90625 z M 1547.2877,841.5 C 1544.6728,849.8775 1537.831,856.1287 1530.5065,860.5312 C 1531.8046,849.3909 1541.3375,842.2056 1548.8503,834.96875 C 1548.3295,837.14582 1547.8085,839.323 1547.2877,841.5 z M 1461.944,848.9375 C 1467.0144,849.2489 1463.4367,854.9052 1462.9052,855.652 C 1466.8496,862.9311 1474.759,855.0484 1479.2048,857.194 C 1480.7209,862.7192 1477.8842,870.5536 1471.4227,871.2857 C 1464.5128,869.3405 1458.7149,872.3654 1453.4238,876.8704 C 1448.2824,880.4842 1441.0589,872.2565 1448.2749,869.6652 C 1451.266,863.721 1460.1176,861.3236 1460.1965,854.5236 C 1460.1988,852.5678 1458.6094,848.9656 1461.944,848.9375 z M 938.56896,929.4062 C 946.86275,930.3503 949.11769,940.0311 953.05076,945.9964 C 954.92096,954.0638 957.29388,961.9922 959.41815,969.9274 C 959.41193,976.8969 960.5402,983.7492 963.53512,990.0796 C 966.45811,997.072 968.6038,1004.5748 967.77117,1012.223 C 969.08983,1018.2628 961.81331,1018.7654 958.41233,1022.2858 C 949.66576,1020.4147 956.51945,1008.0923 958.75308,1002.8245 C 961.80126,999.9065 961.69455,990.537 955.89906,994.6804 C 948.16897,999.8501 957.50661,987.2353 953.96495,983.7367 C 952.20789,975.6204 943.63133,982.8516 939.91945,977.5964 C 937.74513,970.9152 933.1887,965.1042 931.33233,958.2689 C 932.52901,951.8212 918.74492,945.5439 917.37481,953.8465 C 917.05391,958.745 917.64477,963.7091 916.53666,968.5939 C 915.61978,973.6408 916.58578,979.8071 921.65861,982.3105 C 929.45091,986.9425 932.36314,995.7487 932.19627,1004.3418 C 932.21989,1011.2641 938.83427,1017.1122 937.14071,1023.9178 C 933.98475,1030.4915 927.07493,1024.1882 928.1616,1018.8258 C 926.83096,1013.4063 925.854,1007.9287 925.04377,1002.3731 C 924.1575,996.1305 920.40102,990.3897 914.45581,987.9422 C 906.89332,984.8622 905.50785,976.7916 909.91181,970.5079 C 912.09519,963.7599 909.5181,957.0919 903.03207,954.3026 C 898.8668,951.1729 900.42904,944.8956 905.83584,944.8045 C 909.17705,940.9655 899.59756,934.778 907.31176,932.9793 C 915.0152,930.7016 918.11005,939.1828 921.27936,944.1625 C 925.50468,945.5468 925.39692,936.2299 929.00556,933.7771 C 931.25411,930.8445 934.84725,929.0167 938.56896,929.4062 z M 1208.5377,945.1562 C 1201.7194,943.9976 1198.7006,951.7596 1206.0784,953.3148 C 1210.2174,956.331 1222.5663,958.4168 1218.33,949.9671 C 1216.5708,946.3722 1212.4965,944.2008 1208.5377,945.1562 z M 1509.3815,968.5312 C 1504.5481,967.5919 1494.4811,973.7275 1501.6962,977.7284 C 1508.2261,979.1279 1513.9677,982.4278 1520.3407,984.0135 C 1528.6899,984.974 1536.9536,982.5299 1545.2529,982.2358 C 1551.5138,978.3321 1544.3828,972.199 1539.367,972.2585 C 1529.684,968.906 1519.551,968.0101 1509.3815,968.5312 z M 1526.0065,1045.875 C 1523.1062,1048.3568 1517.4081,1058.042 1523.9982,1057.5916 C 1532.3762,1059.3544 1540.5729,1062.3246 1549.2663,1062.174 C 1553.9347,1061.9302 1560.6158,1065.9599 1560.3552,1058.6215 C 1560.5145,1054.0295 1566.1924,1044.6956 1557.5891,1048.2578 C 1549.7317,1050.5345 1540.4541,1054.7455 1532.8105,1051.3035 C 1531.0369,1049.1579 1528.9388,1046.3787 1526.0065,1045.875 z M 1539.944,1062.5938 C 1537.0266,1062.1594 1541.4157,1064.6433 1539.944,1062.5938 z M 1563.8815,1064.4375 C 1564.1027,1065.5499 1564.7592,1063.7307 1563.8815,1064.4375 z M 1563.5065,1064.5938 C 1564.1102,1065.3908 1563.9075,1063.9183 1563.5065,1064.5938 z"
     id="CA-AB" />
  <path
     style="fill:#3bb3c2;fill-opacity:1"
     d="M 361.78771,156.46875 C 355.29969,158.80338 345.66034,160.11793 347.35731,169.53847 C 345.50839,182.38847 340.69741,197.0802 348.88146,208.78125 C 351.71399,214.36221 357.24814,227.74707 348.04167,228.65985 C 341.5292,231.38504 338.67259,245.97218 330.51998,238.27046 C 325.15725,235.62261 320.87021,227.91382 326.66417,223.37584 C 333.60371,219.89783 332.03273,213.24793 324.1145,212.93956 C 312.51494,209.62357 301.25346,205.24667 290.25279,200.35062 C 283.35325,196.77465 269.48612,197.35868 271.9391,208.35649 C 272.06953,215.04242 281.43732,224.89583 270.59896,226.4122 C 265.65736,231.50408 266.30367,240.51499 268.75785,246.89608 C 272.74317,254.98199 284.84767,255.85952 285.66762,266.4203 C 286.03337,272.09891 285.02499,280.93084 293.83309,277.64956 C 298.50185,276.32717 305.9404,280.53458 298.43266,283.25064 C 295.93838,289.48559 293.50611,295.70698 287.02341,298.83636 C 281.89122,303.80145 277.10728,298.64858 273.8402,295.44165 C 268.70628,295.62573 258.03627,300.19615 256.36887,294.8072 C 254.21662,289.28355 259.58907,276.33933 250.92102,277.43777 C 240.89573,277.12269 231.19551,280.85426 221.21034,280.1103 C 215.02106,282.03305 210.01491,284.32048 203.99856,286.71206 C 197.31309,291.69079 200.64967,300.17613 202.27173,306.6696 C 201.79447,315.65552 188.27659,314.67603 186.91846,323.13989 C 188.1302,331.51855 178.66402,338.41077 182.63222,346.74487 C 186.04198,353.18558 192.06717,360.77386 200.13939,360.02493 C 202.25086,368.0083 191.46764,375.19181 186.77276,381.54756 C 182.31746,384.96909 176.41687,391.3629 185.32028,393.0734 C 193.17459,394.41398 197.86653,400.49829 203.15333,405.70323 C 207.08177,411.0558 200.44418,418.47106 205.93205,423.68319 C 212.36215,425.58901 213.62769,433.77976 220.7911,434.90126 C 220.38391,441.52616 210.42336,443.10268 205.5646,446.92708 C 191.70611,454.06935 174.82652,457.98072 159.81896,452.0625 C 150.79288,450.67708 140.53413,453.67669 133.03667,446.82419 C 123.78705,442.03023 113.32801,439.76891 104.7544,433.63482 C 93.258753,427.1884 79.505894,421.46026 66.225352,425.23779 C 60.311735,431.49966 68.997971,440.27474 75.831595,441.10214 C 84.013475,442.76518 88.678174,450.61829 96.88501,452.3833 C 104.77663,456.13758 111.88256,461.37933 120.10692,464.57233 C 125.69566,470.01519 132.16506,474.51144 140.66271,474.71875 C 152.87044,475.43015 165.04359,476.65849 177.10946,478.57386 C 191.54301,479.69037 206.03491,475.99441 220.37485,478.6956 C 232.53376,479.75561 244.92891,479.09952 256.85021,482.125 C 263.66695,480.3749 261.03958,472.18286 259.70225,468.58367 C 264.43043,460.4249 275.32922,461.82227 283.42119,460.92481 C 288.45995,460.66869 294.93011,462.03135 295.661,455.64716 C 303.53346,452.3755 313.27999,452.72831 321.28473,448.08138 C 325.38034,446.50108 329.07622,453.6651 334.73591,451.02553 C 338.72493,449.93935 351.54453,451.66527 342.81054,456.42439 C 342.03064,459.79261 343.32311,464.28485 337.9801,460.44192 C 328.41255,455.96045 317.2271,458.36179 308.75708,464.01822 C 301.60731,465.32076 294.11153,466.83132 289.60472,473.13954 C 280.1441,479.48965 290.91938,488.38808 298.9931,487.17098 C 306.85902,487.8044 314.39378,490.52546 322.3888,489.62208 C 330.6951,488.2022 330.56059,500.44213 337.98001,500.54318 C 345.01817,496.40745 350.25967,488.90661 356.90174,483.61316 C 361.19148,476.78883 372.78932,475.93429 369.45113,486.51923 C 370.10491,492.61583 377.44878,495.69145 372.87777,502.357 C 369.52852,508.35361 372.7521,513.38914 378.87391,514.78843 C 382.02678,520.69975 381.57531,529.17904 388.82452,532.83436 C 396.73863,538.25036 406.49863,543.0429 409.40445,553.00336 C 411.73863,560.00142 414.29264,567.77422 421.24558,571.51699 C 430.66594,575.96142 420.80845,584.98314 424.80455,591.9265 C 427.33784,598.62521 431.00602,605.07572 430.89654,612.45768 C 431.60324,621.8964 433.38843,631.54847 438.63098,639.56379 C 444.91527,660.04654 434.8808,681.59851 441.06896,702.09375 C 442.86035,717.45138 439.96911,734.07081 447.81896,748.15625 C 455.18024,754.22543 464.6296,757.38531 472.91712,761.81447 C 482.45287,764.61288 491.36459,757.29721 492.55682,747.95985 C 494.35604,741.28953 502.03416,736.67551 500.1574,729.12647 C 497.87459,721.8384 490.60625,717.26901 488.6348,709.60871 C 485.25999,701.30042 484.55382,691.49274 488.60021,683.28125 C 491.88657,666.59155 486.2264,649.99063 485.07717,633.38933 C 483.36302,623.06872 481.98574,612.02284 475.41271,603.46875 C 468.03124,603.71155 462.74872,611.60637 454.84345,612.66725 C 450.8065,613.53568 442.93696,619.97386 441.46305,618.70408 C 444.47282,607.62426 444.77726,595.38162 440.06896,584.71875 C 440.23767,574.78141 441.39559,563.17211 449.94396,556.6875 C 441.028,557.74722 428.25351,553.75859 427.8909,543.19822 C 429.91664,535.91376 436.40129,530.93312 439.76343,524.22021 C 483.28915,458.70844 527.67578,393.77511 571.60021,328.53125 C 567.77637,319.44645 571.49853,309.24241 570.36524,300.52454 C 564.43031,296.18623 556.53778,294.91581 550.87551,289.75497 C 537.95782,281.12621 527.47003,269.10805 520.5042,255.24954 C 516.9019,249.05448 508.43777,248.33946 505.179,242.06439 C 502.46031,236.70864 498.01919,231.60011 502.1301,225.8057 C 497.81031,221.05681 487.01333,217.86148 489.8286,209.47505 C 494.06495,201.03056 496.57165,189.86909 490.63146,181.59375 C 483.73267,179.89196 474.53302,182.1682 471.05196,173.9587 C 464.32779,166.83849 453.00456,166.50824 444.47521,170.28125 C 434.25402,172.8093 427.9599,162.46645 419.77816,159.57438 C 410.01462,158.10815 400.53655,162.86066 393.16271,168.875 C 381.39925,173.05877 368.9943,165.30803 361.78771,156.46875 z M 201.60021,201 C 192.24132,204.18047 197.81077,213.96158 199.77322,219.82238 C 199.87577,225.80598 199.49459,244.85689 209.21209,236.99002 C 213.91187,231.03014 205.06981,221.58895 215.14026,219.09845 C 218.63821,210.51116 208.40045,207.598 204.14923,203.0681 C 203.52006,202.18875 202.79125,201.10523 201.60021,201 z M 162.56896,299.8125 C 154.51765,302.51009 156.77536,312.7691 155.35935,319.32867 C 154.77456,327.42506 165.2251,332.99235 171.32603,327.24143 C 178.60143,321.80671 177.3066,311.74181 169.98857,307.37278 C 169.54468,303.66801 167.29272,298.3233 162.56896,299.8125 z M 5.9439564,402.40625 C -1.3914229,399.47896 -2.3178313,409.12588 5.3061696,407.84469 C 12.125543,410.42386 18.326715,414.76035 25.225206,417.375 C 29.644614,420.92047 36.942205,432.79913 42.120427,424.32997 C 44.9543,415.54317 35.208295,413.35853 29.15877,411.27729 C 23.499962,408.35459 19.665391,401.99766 12.552381,402.51328 C 10.353923,402.34099 8.146766,402.37839 5.9439564,402.40625 z M 274.66271,487.75 C 258.44772,491.3505 241.73751,490.01338 225.28771,491.1875 C 220.14863,496.01838 221.77539,504.36629 218.4686,510.55035 C 220.96424,515.88654 227.74872,518.64038 232.29391,522.59182 C 237.13155,525.81049 245.42788,528.75129 249.52236,522.99377 C 254.90419,516.40052 256.83363,505.35636 266.50646,503.5625 C 273.55202,503.93635 281.55502,492.35496 274.66271,487.75 z M 360.28771,493.90625 C 349.87574,499.23413 336.94268,503.86254 332.50646,515.78125 C 337.77501,522.31407 346.09281,511.50389 351.94083,509.34362 C 354.66592,506.60168 367.06983,496.94942 360.28771,493.90625 z M 525.16271,960.1875 C 520.1403,964.4046 523.18821,976.3227 517.84898,977.146 C 507.03147,974.5854 499.26003,965.883 489.22521,961.625 C 484.64461,967.8103 486.74563,976.1603 484.51597,983.1875 C 482.09952,1003.6709 478.13391,1024.5574 467.45251,1042.5068 C 459.24598,1060.8997 447.92043,1077.733 435.35021,1093.4062 C 430.57989,1103.3754 430.69651,1114.6342 430.08375,1125.3717 C 428.27372,1135.3168 421.70627,1143.1754 415.42595,1150.6706 C 408.79992,1157.5109 413.06083,1165.8101 414.53391,1173.4506 C 414.99771,1180.4799 409.18697,1185.8134 409.37172,1192.8418 C 408.4205,1200.8961 411.32612,1208.6731 413.8373,1216.08 C 412.94765,1224.9188 422.47068,1229.8514 422.75036,1237.5289 C 418.47349,1244.5689 417.58364,1252.4292 422.09823,1259.673 C 425.76386,1266.3651 418.68121,1272.1795 420.33405,1278.8953 C 422.6178,1283.8915 425.53759,1288.7124 426.44782,1294.3194 C 427.66387,1301.1956 430.24102,1307.7911 431.22587,1314.6693 C 431.76675,1322.2746 424.30483,1330.6005 432.45952,1336.6018 C 438.81987,1342.2749 448.41982,1342.6168 453.32861,1350.2469 C 459.28595,1357.4241 464.78624,1365.03 471.96501,1371.0764 C 478.63887,1377.7556 483.68466,1387.0837 482.03854,1396.7867 C 480.01355,1406.3193 483.69843,1418.2708 495.28724,1417.9624 C 508.75577,1420.8139 522.87873,1421.1288 535.72521,1426.5 C 544.4317,1426.2054 540.10955,1437.7552 548.56429,1439.3735 C 556.15903,1443.6369 562.88163,1449.2436 570.19917,1453.9896 C 583.43404,1463.2855 596.38845,1472.9719 609.56896,1482.3438 C 626.14807,1485.8428 641.89795,1494.2133 659.13161,1493.9783 C 668.61796,1496.1748 665.20759,1479.1295 674.56659,1484.7504 C 686.23747,1488.4977 698.68919,1488.0818 710.56896,1490.8125 C 716.88447,1498.4575 719.8774,1508.3055 726.57945,1515.679 C 732.10474,1523.743 741.68459,1529.8572 742.54973,1540.4026 C 743.89976,1548.957 744.93995,1558.5962 752.17049,1564.4433 C 757.75859,1569.8971 767.0331,1582.1569 775.06002,1574.7448 C 780.20626,1567.2868 786.45666,1558.0807 796.97847,1559.6022 C 804.52281,1560.8633 813.93997,1561.3335 818.62761,1568.3451 C 820.88214,1573.6764 825.84217,1576.9589 828.43605,1582.1375 C 834.0076,1592.2226 834.95998,1604.1324 840.83479,1614.1145 C 844.29589,1621.7799 851.12103,1627.8749 851.89943,1636.6308 C 853.48436,1646.2581 853.3459,1658.7498 863.35319,1663.8885 C 871.73566,1668.2475 880.2713,1673.7119 890.06896,1673.5938 C 894.39503,1679.7145 902.1637,1678.6169 901.33044,1670.3017 C 902.77053,1658.2357 896.9393,1644.3872 905.38146,1633.875 C 917.5289,1614.7812 939.42628,1606.2341 958.33591,1595.5991 C 965.89473,1590.9262 971.87431,1583.1303 981.17178,1581.8687 C 988.77388,1580.6366 996.56922,1577.4427 1004.1774,1581.0122 C 1011.5842,1583.4787 1020.0828,1587.2839 1027.5059,1582.7228 C 1038.4511,1579.1906 1042.5044,1594.139 1051.688,1596.9629 C 1059.3607,1600.4088 1067.236,1596.955 1074.7288,1594.9707 C 1082.0214,1592.8581 1094.5521,1605.1334 1097.7628,1595.3853 C 1093.3072,1590.0966 1083.3415,1585.3778 1091.3363,1578.0187 C 1093.9458,1572.0991 1083.4003,1567.4296 1092.8167,1565.6873 C 1100.797,1562.6633 1109.4492,1564.1807 1117.7565,1563.7812 C 1128.0427,1568.9643 1139.1415,1562.7327 1149.819,1563.125 C 1162.5199,1561.1066 1173.8997,1569.0057 1183.3192,1576.5437 C 1189.1173,1580.5414 1195.6955,1574.7453 1200.9863,1572.2894 C 1206.8892,1568.6708 1216.1679,1565.4186 1221.2284,1572.0912 C 1226.9273,1579.6762 1235.3126,1584.7294 1240.5603,1592.5662 C 1246.4168,1602.4147 1243.0906,1614.2365 1246.2993,1624.8234 C 1247.9649,1633.0017 1252.0062,1640.4782 1256.8799,1647.1022 C 1261.285,1657.12 1269.6245,1664.6494 1276.9269,1672.5104 C 1284.163,1678.137 1289.3905,1686.6679 1297.9267,1690.4281 C 1302.1597,1691.7588 1313.3044,1688.2573 1308.1708,1695.9365 C 1302.7633,1700.9694 1295.3514,1702.8878 1289.2877,1706.9375 C 1300.6909,1705.1835 1313.212,1696.9223 1313.2877,1684.25 C 1317.0529,1666.7565 1319.5462,1646.8699 1309.436,1630.9389 C 1302.3399,1620.8156 1300.7796,1608.1983 1295.4463,1597.2945 C 1287.6775,1582.8338 1276.9709,1569.6935 1272.7558,1553.5563 C 1268.4208,1545.1436 1269.8397,1535.6713 1271.735,1526.8674 C 1275.534,1518.1506 1275.2635,1506.8212 1282.4025,1500.2176 C 1294.3286,1492.0441 1303.8091,1480.7141 1312.1003,1468.9688 C 1315.5303,1461.5607 1318.8715,1448.884 1328.3749,1448.6678 C 1336.8622,1451.5037 1337.7206,1440.8491 1340.5566,1435.7446 C 1345.707,1428.7743 1352.8298,1423.2837 1361.2777,1421.0391 C 1365.7292,1419.4013 1371.1958,1411.4702 1363.3639,1411.0678 C 1355.2601,1404.7994 1367.8796,1402.8406 1371.7983,1400.1987 C 1375.4499,1396.1411 1381.8866,1387.9759 1374.1806,1384.188 C 1370.0685,1381.6957 1363.125,1381.8109 1368.011,1376.3401 C 1367.3961,1371.2655 1363.4057,1369.736 1366.1371,1364.7958 C 1363.7316,1358.152 1355.335,1358.5602 1356.6462,1349.6181 C 1355.5254,1342.6086 1348.7959,1337.7028 1353.7565,1330.5938 C 1346.2345,1331.6598 1346.4421,1319.9747 1344.1443,1314.7397 C 1342.5754,1306.4367 1344.44,1296.9975 1350.944,1291.1875 C 1350.1961,1301.7614 1348.3626,1313.4631 1354.3815,1322.9375 C 1361.5243,1326.3674 1369.7056,1331.7501 1364.2581,1340.6562 C 1363.8924,1345.0916 1358.7178,1354.4725 1362.984,1355.7626 C 1368.7108,1351.4409 1367.476,1342.6707 1371.9806,1336.906 C 1372.2919,1329.5097 1378.6636,1324.7197 1376.0439,1316.724 C 1378.1124,1309.7052 1370.1131,1306.3466 1368.7498,1300.1304 C 1370.2255,1300.0984 1379.2739,1303.1719 1380.8298,1296.8347 C 1388.3052,1286.1282 1393.2661,1271.1964 1386.4127,1258.9688 C 1386.4887,1251.7043 1396.5704,1256.9644 1400.7978,1252.2794 C 1407.5912,1249.0359 1413.9727,1244.4195 1418.3763,1238.2812 C 1413.2749,1233.1006 1404.6096,1244.4426 1397.7136,1244.2382 C 1389.848,1247.2246 1389.9431,1235.5502 1397.5769,1237.7333 C 1402.9382,1235.9123 1408.1553,1233.7756 1413.7389,1232.6708 C 1419.2094,1228.9868 1425.9415,1228.798 1430.8815,1224.9375 C 1432.8357,1219.6623 1436.0636,1216.9399 1441.3988,1219.701 C 1445.1183,1219.2843 1445.8818,1227.6281 1449.3218,1222.0917 C 1442.5989,1214.3708 1455.7797,1215.6583 1458.6656,1210.794 C 1464.1483,1206.9807 1453.4377,1199.1278 1454.3881,1203.1902 C 1459.2251,1208.2818 1451.9754,1212.7002 1448.3394,1207.3407 C 1441.7293,1203.6007 1434.6708,1197.3792 1438.7112,1189.4793 C 1438.4062,1183.8974 1430.2723,1183.7135 1433.093,1176.7145 C 1434.3314,1169.9583 1440.754,1166.2148 1444.6844,1161.0686 C 1457.4929,1147.4785 1471.257,1134.3257 1487.7366,1125.297 C 1495.76,1121.5958 1494.8168,1110.7724 1485.3598,1111.0879 C 1478.7376,1108.6109 1475.9763,1101.1428 1471.0464,1096.4838 C 1462.7967,1087.6181 1464.7254,1074.563 1459.6003,1064.2812 C 1453.5615,1057.139 1443.9885,1062.2255 1436.4092,1062.4488 C 1428.2504,1063.388 1429.4304,1073.0736 1427.3828,1079.0143 C 1424.3158,1095.2356 1424.5035,1112.7914 1415.5065,1127.25 C 1406.8535,1124.8796 1410.0822,1138.8495 1401.2622,1136.1758 C 1392.1487,1137.3547 1382.7748,1138.7803 1374.6627,1143.375 C 1368.4457,1141.1364 1361.6884,1143.7006 1355.2757,1142.7378 C 1345.0856,1144.7171 1339.8544,1154.8127 1333.499,1161.9611 C 1329.6304,1166.4911 1324.5281,1171.2822 1327.7931,1177.5094 C 1328.7978,1186.0638 1322.8963,1195.5102 1313.809,1196.0839 C 1302.6152,1198.673 1289.8346,1193.7252 1279.7565,1200.7812 C 1281.6915,1206.8622 1287.6681,1214.3498 1279.6095,1219.0445 C 1272.9987,1223.3882 1271.7673,1234.5943 1263.5852,1233.2546 C 1258.9158,1238.5639 1252.737,1240.8327 1246.4631,1243.5734 C 1237.9476,1249.2622 1230.4049,1257.8262 1219.5379,1258.572 C 1212.9155,1257.6814 1201.5372,1255.9849 1200.8001,1247.8579 C 1201.046,1238.8803 1207.2757,1232.1015 1212.3297,1225.3219 C 1218.2311,1217.2128 1214.7065,1206.4165 1211.1199,1198.1255 C 1209.0657,1191.2823 1201.5774,1186.7939 1198.5086,1195.6116 C 1195.7191,1200.1241 1185.5166,1203.2307 1188.0801,1194.7341 C 1191.2899,1188.951 1195.7324,1183.5882 1195.7256,1176.5401 C 1196.854,1166.9336 1192.0799,1155.4465 1181.7815,1153.3111 C 1176.2856,1152.6483 1168.4706,1142.2301 1178.043,1141.8122 C 1186.7672,1136.8325 1172.5248,1128.3609 1166.6964,1127.7623 C 1159.3659,1123.9212 1150.9147,1122.434 1142.9233,1125.2694 C 1134.6347,1127.1142 1124.6658,1131.9025 1117.0194,1125.8654 C 1113.6828,1119.5215 1098.9909,1122.1837 1103.9622,1113.1427 C 1106.5752,1110.1963 1109.0296,1107.1473 1103.3969,1109.4748 C 1096.4994,1113.846 1090.2216,1119.3452 1082.406,1122.1935 C 1075.8585,1124.398 1069.7044,1126.3834 1065.4331,1131.117 C 1059.8606,1131.2262 1057.8845,1124.1994 1055.2469,1122.2637 C 1047.698,1126.2431 1039.2909,1128.1516 1031.0113,1130.3202 C 1026.905,1131.6552 1024.7161,1131.8827 1029.174,1128.5301 C 1039.4898,1118.8067 1050.0558,1109.3502 1060.819,1100.125 C 1065.0763,1099.3829 1077.6604,1095.4874 1068.3413,1091.9624 C 1055.7474,1090.7944 1041.6044,1092.2739 1030.9727,1083.93 C 1025.5767,1078.7329 1017.9033,1076.9497 1010.6341,1077.5463 C 1002.4618,1076.8434 990.07555,1074.3887 990.20696,1063.9839 C 990.2895,1057.5168 983.89017,1055.645 982.3422,1062.5687 C 976.08245,1064.331 969.00013,1062.1997 962.40681,1062.5351 C 954.68347,1062.1835 946.92824,1062.7111 939.37706,1060.8116 C 928.65895,1059.7447 917.90109,1059.0805 907.29774,1057.1087 C 878.79896,1053.3291 849.98515,1051.9218 821.64289,1047.0383 C 754.52207,1033.5815 687.95566,1017.1303 622.69396,996.4062 C 615.07494,996.0968 609.01594,990.5162 601.63028,989.0436 C 576.03746,979.6993 550.96123,968.9737 525.16271,960.1875 z M 1164.1315,1142.9375 C 1171.3929,1144.641 1158.6316,1148.7126 1162.2352,1153.5476 C 1162.2542,1159.4847 1155.389,1162.3298 1156.2996,1169.0551 C 1154.66,1173.6477 1151.1258,1174.2881 1150.4851,1168.6764 C 1144.747,1167.5602 1142.6197,1177.279 1140.6743,1181.6915 C 1139.2038,1188.1279 1136.5712,1194.5458 1136.2057,1201.0756 C 1137.588,1212.9234 1147.3367,1223.8139 1142.9741,1236.1386 C 1139.3738,1242.5818 1141.1744,1255.8823 1131.9678,1256.2933 C 1127.0303,1257.5851 1117.5219,1260.9291 1118.7895,1251.9136 C 1115.9355,1243.4682 1114.5579,1234.822 1114.7667,1225.9439 C 1113.7117,1212.4057 1115.1219,1198.5866 1119.965,1185.8766 C 1120.1642,1177.7574 1126.1419,1171.8084 1128.2322,1164.5698 C 1126.7966,1154.8098 1121.2634,1178.3307 1116.2393,1168.5746 C 1112.4097,1163.2839 1117.4313,1160.7255 1121.4597,1159.8434 C 1124.1529,1152.9961 1132.394,1152.3438 1137.2956,1147.631 C 1145.052,1143.7948 1155.4036,1144.1018 1164.1315,1142.9375 z M 95.600206,1154.625 C 89.353092,1158.5056 102.47919,1160.7171 98.645634,1154.9544 C 97.716527,1154.4598 96.61084,1154.4671 95.600206,1154.625 z M 113.47521,1155.8125 C 105.3921,1156.8433 105.42561,1171.8524 114.82629,1169.272 C 122.7401,1167.4116 121.09446,1156.4049 113.47521,1155.8125 z M 134.41271,1196.9062 C 125.60798,1199.2676 128.8777,1212.0306 137.05897,1212.6461 C 145.35305,1212.9861 143.10674,1199.7258 137.34856,1197.3215 C 136.42604,1196.9354 135.40493,1196.8086 134.41271,1196.9062 z M 634.63146,1201.2812 C 642.12756,1202.1177 639.33368,1215.1998 646.35801,1213.0394 C 653.0491,1216.1423 649.63462,1229.2476 641.71821,1228.0437 C 632.40313,1225.512 629.99005,1214.1409 631.40939,1205.7461 C 632.02675,1204.2442 631.59609,1198.8087 634.63146,1201.2812 z M 1458.069,1216.4688 C 1451.2313,1217.9753 1460.5858,1224.044 1460.1008,1217.504 C 1459.8392,1216.6781 1458.8509,1216.3465 1458.069,1216.4688 z M 1449.8503,1216.625 C 1449.9212,1218.7626 1452.1922,1215.0898 1449.8503,1216.625 z M 148.88146,1222.1875 C 141.20935,1225.4164 154.08158,1239.2575 153.96843,1229.1537 C 153.47854,1226.3658 152.1323,1222.5809 148.88146,1222.1875 z M 157.56896,1239.9375 C 149.80855,1241.8669 152.25529,1254.2747 160.69285,1251.5997 C 167.92443,1250.8106 162.27373,1239.8219 157.56896,1239.9375 z M 163.85021,1272.0625 C 159.97962,1276.4281 152.65062,1278.929 152.2982,1285.3376 C 153.26343,1291.8697 142.99984,1304.0944 153.54339,1305.2736 C 160.66472,1304.2658 171.73515,1311.8501 175.82796,1302.5431 C 174.53414,1295.8584 174.08792,1289.3464 174.0726,1282.7189 C 172.30573,1278.0724 168.14135,1274.0264 163.85021,1272.0625 z M 432.44396,1347.625 C 428.88101,1352.0957 440.63724,1354.9403 444.7134,1354.2214 C 452.8693,1351.8788 437.71311,1346.0498 433.50595,1347.5727 L 432.44396,1347.625 L 432.44396,1347.625 z M 460.72521,1373.8125 C 456.63874,1377.8029 468.35114,1380.3786 463.04955,1374.6217 L 461.95267,1373.9828 L 460.72521,1373.8125 L 460.72521,1373.8125 z M 458.16271,1386.9375 C 452.29879,1392.7598 467.2026,1391.2009 460.06332,1386.7608 L 459.15465,1386.7346 L 458.16271,1386.9375 z"
     id="path112"
     sodipodi:nodetypes="cccccccccccccccccccccccccccccccccccccccccccccccccccccccccccccccccccccccccccccccccccccccccccccccccccccccccccccccccccccccccccccccccccccccccccccccccccccccccccccccccccccccccccccccccccccccccccccccccccccccccccccccccccccccccccccccccccccccccccccccccccccccccccccccccccccccsccccccccccccccccccccccccccccccccsccccccccccccccccccccccccccccccccccccc" />
  <path
     style="fill:#42929d;fill-opacity:1"
     d="M 487.03771,1418.9688 C 485.8761,1423.0051 489.72233,1426.6951 488.80701,1430.9147 C 489.31426,1433.7439 491.43889,1436.312 490.90361,1439.2722 C 488.18726,1441.1194 491.18681,1445.0504 490.8266,1447.5747 C 493.01087,1452.3724 495.08758,1457.7195 493.85021,1463.0625 C 497.1374,1467.524 495.79998,1473.2992 495.31896,1478.375 C 495.70584,1481.3001 500.50095,1481.9463 498.97725,1485.6414 C 497.94909,1488.7546 496.37671,1492.4064 498.61727,1494.9534 C 497.70261,1500.0612 502.03203,1503.8483 505.23877,1507.1253 C 507.55298,1510.3471 511.38122,1512.0429 513.17455,1515.7028 C 515.53365,1520.0793 516.8712,1524.9705 519.79039,1529.0502 C 521.79168,1532.646 523.05044,1536.6282 525.35021,1540.0625 C 525.64763,1543.2357 521.73379,1545.3648 522.73629,1548.5539 C 523.27293,1549.9362 527.51374,1551.9599 525.77627,1552.9453 C 523.14496,1552.6621 520.11597,1549.4483 518.1103,1552.3912 C 514.60699,1555.241 509.44249,1556.5588 505.34782,1554.1529 C 503.44783,1553.1357 498.98595,1549.526 498.07932,1552.6821 C 500.14658,1555.9848 502.0257,1559.7254 505.00202,1562.1009 C 508.88655,1564.4448 506.5301,1569.1485 508.61161,1572.3442 C 509.96694,1575.1516 513.60505,1572.796 514.25419,1576.1578 C 515.77332,1580.3094 520.91201,1580.9176 521.92143,1585.2465 C 522.69042,1588.1167 525.06916,1589.7847 527.71689,1588.0366 C 530.89296,1588.1099 534.47693,1589.8673 535.9683,1592.7043 C 536.86059,1595.4151 535.66259,1599.2968 538.69977,1600.8966 C 540.85222,1601.8896 540.81286,1605.8104 543.8509,1606.6928 C 546.55236,1608.2084 549.43247,1610.2034 549.94804,1613.4406 C 552.60593,1617.3986 551.65942,1622.4571 551.22521,1626.9062 C 549.53071,1630.3529 547.41036,1633.6303 546.76833,1637.4568 C 545.10472,1640.9558 541.48064,1643.4929 541.00646,1647.5312 C 543.45408,1650.4415 543.47292,1655.1877 547.66707,1656.5038 C 550.05999,1659.1713 550.75521,1664.932 555.43951,1663.1587 C 559.32638,1664.3006 562.15792,1667.5353 564.80008,1670.4338 C 569.49681,1676.3547 571.83084,1684.1868 578.20722,1688.7047 C 583.51095,1694.393 579.32427,1703.5212 584.55978,1709.2363 C 587.92846,1708.9653 591.95097,1707.6753 595.23853,1706.1168 C 599.61847,1704.0876 601.39781,1697.7901 598.35836,1693.9398 C 596.78017,1691.6865 594.51718,1689.3383 595.00646,1686.3438 C 593.81736,1682.5265 596.4508,1678.7566 595.85475,1675.0805 C 595.70973,1673.6817 593.18884,1670.8638 593.63146,1674 C 594.06401,1675.9011 593.24194,1681.4031 591.16671,1677.3309 C 589.8264,1673.9949 586.78444,1671.735 585.8926,1668.1729 C 585.74382,1666.681 584.5445,1662.2337 583.06932,1663.3326 C 584.27773,1665.7403 585.37877,1668.6794 584.12728,1671.3303 C 581.75871,1675.14 577.0722,1671.0458 576.64463,1667.8599 C 575.65736,1663.6077 576.64465,1658.8867 579.09823,1655.306 C 580.59798,1654.3353 584.05939,1656.806 582.94887,1653.4057 C 583.07363,1649.0082 578.02023,1648.8328 575.98834,1646.3564 C 573.95898,1642.4729 575.92266,1637.9894 574.88146,1633.9062 C 575.3332,1632.9359 577.38952,1629.5621 575.19633,1630.3744 C 572.91252,1634.8824 569.90988,1627.5877 572.52421,1625.8545 C 573.72247,1624.4033 579.14391,1621.5054 575.16271,1620.5 C 574.0837,1623.0457 571.38233,1622.3915 571.77327,1619.6051 C 571.5545,1616.035 570.90226,1612.5004 571.25172,1608.9126 C 571.71606,1605.9135 569.52331,1603.6985 568.91694,1600.9922 C 568.04043,1598.1358 566.59562,1594.2413 563.07063,1594.1047 C 561.62562,1594.0582 559.83461,1595.3859 561.5831,1593.5626 C 562.93068,1590.7204 562.56511,1586.3809 561.19562,1583.9203 C 558.47582,1584.8627 557.73253,1583.4461 558.45241,1580.916 C 557.96648,1573.8885 550.41192,1569.6225 550.36445,1562.4864 C 550.21304,1559.865 552.74565,1557.9587 552.07149,1555.2507 C 551.80442,1552.4877 550.5585,1549.8136 550.94396,1547 C 546.01946,1547.514 545.11359,1541.8042 545.9979,1538.2955 C 544.81438,1536.8054 542.81877,1535.6341 543.34663,1533.6233 C 541.847,1532.6377 538.52033,1531.6184 540.94396,1529.4375 C 539.72834,1525.2436 545.71833,1524.4743 546.27165,1528.615 C 546.89998,1530.1134 549.77447,1534.3154 550.41174,1532.8088 C 550.05149,1529.5277 551.76497,1525.0149 547.81461,1523.5713 C 547.00757,1521.1292 546.48797,1515.8151 543.11453,1516.733 C 542.76078,1519.0565 540.57871,1523.0967 538.28889,1519.8499 C 534.79045,1514.7426 532.34056,1508.8282 527.75646,1504.5312 C 527.58042,1499.9653 523.21635,1495.9708 525.05715,1491.2754 C 525.91547,1486.1147 527.47186,1480.9709 527.58317,1475.6886 C 527.48985,1471.8684 525.78091,1468.1732 527.33165,1464.392 C 528.35999,1460.478 530.26844,1456.8696 532.31896,1453.4062 C 532.95629,1456.2049 531.94086,1459.8712 534.44678,1461.9038 C 537.26371,1462.9081 538.90763,1457.6971 542.12097,1460.1308 C 544.49035,1462.0476 542.99653,1466.6517 547.07093,1467.0391 C 550.13645,1467.984 554.30998,1468.4445 555.45282,1471.9952 C 556.44641,1475.928 556.75589,1479.8147 557.44585,1483.7934 C 558.66089,1488.6813 561.1305,1493.2286 561.69396,1498.2812 C 565.09728,1500.8689 563.82386,1505.5078 563.21848,1509.06 C 562.09293,1512.7093 563.96466,1515.8484 566.1246,1518.541 C 567.75493,1522.2765 566.74687,1526.4863 567.81896,1530.3438 C 566.24571,1532.8881 563.2448,1534.2553 562.89756,1537.5134 C 561.08228,1538.9274 560.35351,1542.1205 560.97846,1543.2859 C 558.92818,1543.1777 558.98617,1547.04 560.81896,1544.7188 C 561.82432,1542.0631 564.30966,1543.2415 565.93009,1544.1535 C 568.41826,1543.8286 569.69729,1536.8648 571.78771,1541.4688 C 576.3389,1545.5284 575.15028,1552.7104 579.44396,1556.9375 C 583.00142,1557.713 583.49796,1561.8095 583.87773,1564.8008 C 583.99098,1567.026 584.76697,1568.3122 586.82604,1568.5494 C 588.02373,1570.4798 589.2722,1573.9503 591.9674,1571.8964 C 593.3407,1574.0359 596.05706,1574.6099 597.18748,1576.7153 C 597.15313,1579.7103 593.52614,1582.6562 596.00555,1585.4033 C 595.37704,1589.3663 596.94848,1594.2343 601.03771,1595.6562 C 603.65609,1597.2635 608.17245,1597.0327 608.89125,1600.7155 C 608.43763,1604.516 609.42268,1609.308 613.37597,1610.9007 C 616.65921,1611.7888 617.81372,1615.7348 620.91271,1617.0312 C 618.03888,1619.9978 620.52137,1625.2296 616.96761,1627.7876 C 613.79767,1629.9077 614.53358,1634.1428 613.33662,1637.2968 C 612.81771,1641.219 616.71277,1643.5157 619.53771,1645.3438 C 619.79121,1649.4506 625.08977,1648.3278 626.97665,1648.7192 C 628.40902,1652.4519 630.79659,1655.5922 633.80144,1658.1348 C 635.62833,1661.2388 634.05042,1665.0049 635.88219,1668.1906 C 636.7037,1671.3554 639.95649,1672.1886 640.47205,1675.223 C 642.90494,1676.9586 645.67085,1678.0284 645.85068,1681.4617 C 647.91657,1686.0599 652.18561,1689.1722 656.5531,1691.3952 C 656.61616,1693.8959 656.54839,1696.5578 659.33539,1697.8208 C 663.99294,1702.96 663.66818,1710.6576 668.02151,1716.0083 C 671.27344,1721.1749 673.27409,1727.6742 678.81896,1730.9375 C 682.37865,1731.3186 681.72798,1735.1613 682.3533,1737.4034 C 684.01982,1742.3781 682.48744,1747.7271 683.65794,1752.7855 C 683.93704,1758.2806 686.03287,1763.6785 689.60021,1767.875 C 690.49872,1771.8339 688.25127,1775.5185 687.35021,1779.25 C 686.04548,1781.7732 679.4985,1783.061 681.18368,1785.8749 C 685.62837,1786.245 685.91365,1792.8464 680.98669,1792.5491 C 678.41144,1793.0103 674.18442,1792.7854 673.88146,1796.25 C 675.83555,1800.0079 674.90763,1804.8429 677.85021,1808.1562 C 678.65136,1811.9647 679.91615,1816.0573 683.16271,1818.5 C 684.73812,1823.2718 688.39001,1827.108 692.66271,1829.625 C 693.75494,1833.9244 699.76978,1833.2181 701.41271,1837.125 C 702.89459,1841.3926 709.88659,1839.0385 710.57844,1843.6494 C 712.97901,1845.8288 715.02936,1848.111 715.17695,1851.4593 C 717.14329,1856.8364 721.28282,1861.5514 726.84588,1863.3013 C 734.52458,1866.8212 741.2604,1873.0547 750.00646,1873.75 C 753.60097,1872.1307 757.06044,1874.98 758.95511,1877.8258 C 760.76791,1880.3874 762.39051,1883.1859 765.42176,1884.3992 C 768.86515,1886.656 770.53302,1890.5482 773.39874,1893.3742 C 775.71569,1896.2115 778.45822,1898.8592 781.98611,1900.0827 C 786.59006,1902.4856 791.04584,1905.6558 796.35021,1906.2188 C 800.70353,1908.4656 803.08816,1913.7245 808.13146,1914.75 C 812.2032,1911.5276 815.19786,1917.3493 818.82725,1917.8032 C 822.03027,1919.7038 825.92299,1920.1789 828.91373,1922.2551 C 831.32492,1924.6246 832.70147,1928.6037 836.47521,1929.125 C 842.42836,1928.9516 846.16254,1934.2275 850.44996,1937.4757 C 854.03382,1939.9919 858.92144,1939.2535 862.88458,1941.124 C 866.98452,1942.4176 870.69553,1944.6567 874.08423,1947.2511 C 880.31499,1951.0079 888.38563,1952.4923 895.14535,1949.2301 C 902.46643,1946.4947 911.06432,1946.7154 917.31896,1941.5 C 921.36817,1939.7575 926.2773,1943.3595 929.91271,1940.1875 C 938.33027,1943.9201 947.87812,1946.6899 953.81896,1954.2188 C 958.62411,1958.1347 963.72977,1962.0348 966.6679,1967.6387 C 968.39431,1970.7147 972.13631,1972.1344 974.53046,1973.8279 C 976.92602,1980.7848 983.34954,1985.0868 987.19396,1991.125 C 991.29538,1993.7651 992.08102,1986.7359 991.95881,1983.9839 C 993.12345,1980.8301 995.71774,1977.2356 992.57104,1974.3226 C 991.01186,1970.6699 994.33369,1967.5159 996.56539,1965.054 C 998.5565,1962.7753 1000.2608,1960.2962 1001.9022,1957.7568 C 1003.2644,1955.2645 1005.6337,1952.1401 1008.8951,1953.2263 C 1014.195,1953.8211 1019.5858,1954.0392 1024.9067,1954.654 C 1029.1801,1955.0764 1033.4505,1955.5292 1037.7253,1955.9375 C 1036.6463,1952.6674 1040.0999,1948.9137 1039.4433,1946.5165 C 1035.4698,1944.837 1033.8621,1940.9511 1032.308,1937.4137 C 1028.9644,1933.401 1022.7462,1932.3276 1020.7253,1927.125 C 1018.9222,1926.0767 1015.9605,1921.3576 1020.2126,1922.4449 C 1022.2856,1923.2699 1025.997,1925.0401 1025.666,1921.1053 C 1026.1851,1917.1554 1024.4644,1912.2845 1027.6587,1909.157 C 1030.8168,1907.3694 1034.6362,1909.1417 1038.0673,1908.9202 C 1048.2534,1909.5976 1058.4824,1910.0497 1068.569,1911.7188 C 1072.8964,1913.6587 1074.1368,1908.0168 1073.5845,1904.9479 C 1075.6335,1904.7383 1076.1673,1910.2004 1079.194,1910.0625 C 1082.9194,1909.7408 1083.2694,1905.2925 1085.2167,1902.9007 C 1087.8323,1900.1832 1089.3939,1896.1118 1093.3047,1894.8754 C 1096.2271,1895.1812 1098.096,1889.1105 1100.402,1891.1239 C 1100.0979,1895.2327 1105.9409,1896.8704 1104.9753,1901.125 C 1106.1679,1904.936 1107.4528,1899.1295 1108.1389,1897.8449 C 1111.2395,1890.8029 1111.0383,1882.549 1115.5377,1876.0938 C 1118.7036,1873.9812 1115.0651,1869.6654 1117.9147,1867.2457 C 1119.2727,1865.3451 1117.1608,1863.677 1116.5001,1862.822 C 1117.6615,1857.1601 1117.4762,1850.6086 1121.7877,1846.1875 C 1123.1829,1842.8107 1126.9363,1840.2417 1129.3624,1838.6998 C 1130.2489,1836.1132 1133.555,1834.6937 1133.877,1831.5435 C 1134.736,1828.5551 1139.4025,1826.6707 1136.3777,1823.5406 C 1135.7115,1821.5892 1139.941,1821.514 1136.8716,1819.9245 C 1133.544,1818.0323 1130.8409,1814.8647 1127.1357,1813.8324 C 1122.7856,1813.1536 1118.3477,1814.7765 1114.0395,1813.5249 C 1110.4178,1813.0704 1106.7378,1812.7324 1103.1003,1813.2188 C 1098.3189,1810.063 1092.3734,1811.838 1087.4688,1813.6912 C 1083.4355,1815.2181 1079.215,1816.5709 1074.8477,1816.2663 C 1066.0666,1816.7673 1056.4264,1817.7618 1049.5981,1823.906 C 1046.0327,1826.1384 1046.7448,1830.1369 1046.0483,1833.7097 C 1044.9606,1838.7673 1043.2734,1843.7441 1043.1982,1848.9659 C 1043.1258,1853.2645 1038.7058,1855.395 1037.9477,1859.3359 C 1036.533,1864.1075 1034.8338,1869.9107 1029.6003,1871.7188 C 1024.2207,1874.6758 1017.9965,1876.4938 1013.694,1881.0938 C 1009.8755,1882.9541 1005.4405,1883.343 1001.815,1880.9529 C 994.87316,1878.7904 987.32506,1881.0049 981.59559,1885.1541 C 975.52201,1887.845 968.94704,1884.1492 962.70287,1885.8168 C 956.08334,1886.6726 950.1611,1892.0737 943.22521,1890.1562 C 939.94565,1891.007 937.56816,1887.9311 936.63259,1885.1894 C 935.91941,1882.6923 934.78926,1880.4568 932.38863,1879.2198 C 930.04648,1877.4556 927.61175,1875.742 925.72521,1873.4688 C 920.52963,1871.9779 914.16551,1872.7122 910.22932,1868.3215 C 906.10514,1863.8516 903.12742,1858.5058 899.41271,1853.7188 C 898.18269,1848.4627 898.89611,1842.5111 895.53771,1837.9375 C 892.33923,1827.3954 882.4204,1819.9499 881.0275,1808.7127 C 880.66286,1805.4858 880.2978,1802.1999 881.19056,1799.0074 C 881.49558,1796.5279 883.16331,1793.5849 880.91036,1791.5726 C 878.4958,1788.3178 875.21486,1785.3817 874.44396,1781.2188 C 872.65182,1778.1402 869.21611,1775.7655 870.41271,1771.78 C 869.99943,1767.7741 871.58125,1763.8655 873.72521,1760.5625 C 875.35116,1754.1071 874.75069,1747.3399 874.51948,1740.7827 C 873.66226,1736.7399 878.3649,1734.0876 877.78771,1730.0625 C 881.36091,1716.3996 885.81402,1702.612 894.23868,1691.0951 C 895.97234,1687.4346 898.7001,1683.5953 897.81896,1679.3438 C 894.72543,1679.1363 890.77544,1684.61 889.55094,1679.1588 C 885.1727,1673.3574 876.13678,1676.5047 871.56818,1670.9768 C 870.08062,1669.0388 867.12445,1668.9927 865.17325,1667.4976 C 862.62786,1666.4828 861.30916,1663.6441 858.64857,1663.0808 C 854.62234,1661.7973 853.9964,1657.3842 852.75477,1653.976 C 852.02819,1650.2645 849.79733,1647.0897 849.88654,1643.1917 C 849.44521,1638.7245 849.5835,1634.2299 849.41271,1629.75 C 846.32322,1627.5907 842.22654,1625.0819 842.31072,1620.8112 C 842.5468,1616.6021 838.9146,1613.5806 836.68854,1610.3995 C 834.35195,1607.7639 834.44676,1604.1679 833.0298,1601.1177 C 830.34488,1593.0569 829.89001,1583.6635 823.63209,1577.2867 C 821.21641,1575.5402 818.56914,1573.8513 818.00727,1570.5848 C 817.36299,1567.2114 814.41741,1565.2499 811.09783,1565.4179 C 804.13901,1563.8339 797.23966,1561.7084 790.06896,1561.3438 C 783.75228,1563.8555 781.78601,1571.0147 777.27755,1575.498 C 774.73025,1577.2238 772.95227,1579.4868 770.45048,1581.1625 C 766.44301,1582.7412 764.47943,1577.8254 761.43259,1576.2426 C 757.91646,1573.4823 754.26013,1570.8859 750.97521,1567.8438 C 748.94286,1562.4912 742.41766,1559.5832 742.14751,1553.4443 C 742.12191,1545.5958 741.44101,1537.0855 736.59944,1530.5681 C 734.47175,1527.7756 731.27023,1526.0343 729.35265,1523.0419 C 725.53109,1517.9308 722.78668,1511.9544 717.95688,1507.6477 C 714.92768,1504.2635 715.08639,1499.131 711.95807,1495.8326 C 697.45265,1493.6348 683.34712,1489.2103 668.72521,1487.7188 C 666.69172,1491.3548 668.62056,1496.4685 665.1415,1499.4166 C 661.71747,1499.5068 657.95811,1497.9279 654.42746,1497.2814 C 644.3045,1494.6689 634.14907,1492.1819 623.89463,1490.1391 C 615.75753,1488.3643 607.27047,1486.043 601.00631,1480.2371 C 578.71679,1464.7948 557.24422,1448.215 535.03771,1432.6562 C 537.72068,1432.911 541.69825,1428.6064 536.96744,1428.5236 C 520.42152,1424.8765 503.92956,1420.7016 487.03771,1418.9688 z M 445.47521,1512.125 C 442.51916,1513.718 443.462,1517.5475 444.07439,1520.1827 C 444.70595,1521.5754 443.92278,1525.4238 445.98841,1522.8801 C 448.37713,1519.6016 445.33632,1515.9338 445.89787,1512.5042 L 445.76424,1512.2428 L 445.47521,1512.125 L 445.47521,1512.125 z M 498.16271,1536.5312 C 497.47325,1539.4608 495.11696,1542.5097 493.24822,1543.6729 C 494.93293,1547.5064 499.46947,1545.3166 499.12524,1541.6538 C 499.48022,1539.946 499.57493,1537.81 498.16271,1536.5312 z M 552.06896,1543.375 C 552.24409,1544.968 555.81887,1546.9223 554.19899,1544.1595 C 553.6391,1543.6109 552.83317,1543.3967 552.06896,1543.375 z M 581.41271,1631.9688 C 578.78479,1632.7288 582.60739,1637.1701 582.01517,1633.2144 C 581.92437,1632.838 581.99283,1631.9829 581.41271,1631.9688 z M 581.25646,1642.9375 C 578.98492,1644.1189 582.73198,1645.6875 581.77148,1643.0634 L 581.5857,1642.8921 L 581.25646,1642.9375 z M 554.03771,1656.4688 C 558.15371,1659.444 550.58497,1663.3807 550.21175,1658.3576 C 550.13329,1656.5933 552.83561,1654.2615 554.03771,1656.4688 z M 884.81896,1698.75 C 888.99674,1699.7419 885.48675,1703.9657 883.85423,1705.7677 C 882.80473,1707.0443 882.20053,1708.6318 882.54068,1705.9784 C 882.51255,1703.5734 881.37075,1699.3212 884.81896,1698.75 z M 654.72521,1748.5938 C 652.5857,1749.8953 656.29802,1753.13 655.50646,1749.625 C 655.3621,1749.2425 655.24284,1748.6178 654.72521,1748.5938 z M 657.69396,1752.5625 C 655.54093,1755.1333 660.82436,1761.7044 661.94114,1757.3133 C 661.93251,1754.9577 660.31433,1752.3859 657.69396,1752.5625 z M 662.16271,1762.0312 C 661.13314,1765.4863 668.24538,1762.1247 666.1719,1764.7389 C 666.37723,1768.0457 671.02813,1766.8248 667.74865,1764.4126 C 666.87124,1762.4213 667.73107,1760.5914 664.94766,1760.7398 C 663.69588,1760.1769 662.41028,1760.5557 662.16271,1762.0312 z M 1134.2565,1835 C 1131.9008,1836.5623 1133.5208,1839.5857 1135.5835,1836.9947 C 1136.2854,1836.0201 1135.0565,1835.2533 1134.2565,1835 z M 1135.7877,1839.6562 C 1132.3916,1839.68 1129.5082,1842.3696 1129.1866,1845.7274 C 1130.2542,1850.4494 1134.1791,1843.753 1135.4966,1841.9773 C 1135.8382,1841.265 1136.0273,1840.4312 1135.7877,1839.6562 z M 1129.819,1847.7188 C 1129.819,1847.7188 1129.819,1847.7188 1129.819,1847.7188 z M 1020.1627,1879.7188 C 1023.0697,1882.0238 1020.4851,1885.9238 1017.6516,1886.8266 C 1014.9119,1888.1131 1012.2463,1889.1397 1009.1111,1887.9955 C 1007.0334,1887.3155 1004.5886,1893.3225 1003.9817,1889.3447 C 1003.8629,1885.9808 1006.3769,1883.525 1009.7304,1883.7306 C 1011.9731,1883.9497 1014.2933,1881.0322 1015.3939,1882.915 C 1013.3237,1880.2202 1018.817,1877.7668 1020.1627,1879.7188 z M 1015.569,1883.2812 C 1015.084,1881.8872 1013.0092,1881.7979 1014.8828,1883.0804 L 1015.569,1883.2812 L 1015.569,1883.2812 z M 1014.0065,1882.1562 L 1014.0065,1882.1562 L 1014.0065,1882.1562 z M 1013.7877,1882.4062 C 1014.8577,1884.4113 1015.4873,1882.7241 1013.7877,1882.4062 z M 1013.444,1882.8125 C 1013.2519,1884.3327 1015.1386,1882.755 1013.444,1882.8125 z M 1014.319,1883.4062 C 1015.2215,1883.1499 1012.8833,1882.2414 1014.319,1883.4062 z M 1012.819,1883.5312 C 1014.0011,1884.2313 1012.921,1882.2084 1012.819,1883.5312 z"
     id="MX-CHP" />
  <path
     id="Separator"
     d="M 221.00656,1206.5408 L 221.00656,1329.5408 M 10.006554,1138.5408 L 154.00656,1138.5408 L 221.00656,1206.5408"
     style="fill:none;stroke:#a9a9a9;stroke-width:2" />
</svg>
